<svg width="208" height="52" viewBox="0 0 208 52" fill="none" xmlns="http://www.w3.org/2000/svg">
<path fill-rule="evenodd" clip-rule="evenodd" d="M71.312 32.2869C71.005 32.1026 70.6457 31.9966 70.2615 31.9966H67.7851C66.7289 31.9966 66.0144 31.81 65.6417 31.4369C65.1757 31.0016 64.9427 30.302 64.9427 29.3381V26.0178C64.9427 24.8894 65.8575 23.9746 66.986 23.9746H70.2615C70.6457 23.9746 71.005 23.8686 71.312 23.6843C71.9068 23.327 72.3048 22.6757 72.3048 21.9313V15.766C72.3048 15.424 72.1339 15.253 71.7922 15.253H66.986C65.8575 15.253 64.9427 14.3382 64.9427 13.2097V8.63017C64.9427 8.28815 64.7719 8.11714 64.4302 8.11714H57.667C56.5385 8.11714 55.6237 9.03193 55.6237 10.1604V13.4358C55.6237 14.4394 54.8101 15.253 53.8065 15.253C52.8029 15.253 51.9893 16.0666 51.9893 17.0702V23.4616C51.9893 23.8036 52.1601 23.9746 52.5018 23.9746H53.5804C54.7089 23.9746 55.6237 24.8894 55.6237 26.0178V30.0377C55.6237 33.6445 56.5711 36.3341 58.466 38.1064C60.3609 39.8787 63.11 40.7648 66.7134 40.7648H71.7922C72.1339 40.7648 72.3048 40.5938 72.3048 40.2518V34.0398C72.3048 33.2955 71.9068 32.6441 71.312 32.2869ZM76.0957 43.7465C75.9795 43.89 75.8525 44.0316 75.7139 44.1704C74.3602 45.5254 72.735 45.7648 71.7922 45.7648H66.7134C62.3387 45.7648 58.1801 44.6851 55.0506 41.758C51.8004 38.7181 50.6237 34.4733 50.6237 30.0377V28.6613C49.9508 28.4286 49.2338 28.0345 48.5802 27.3802C47.2274 26.0261 46.9893 24.4021 46.9893 23.4616V17.0702C46.9893 14.4547 48.4621 12.1833 50.6237 11.04V10.1604C50.6237 6.2705 53.7771 3.11714 57.667 3.11714H64.4302C65.373 3.11714 66.9982 3.3566 68.3518 4.71153C69.7046 6.0656 69.9427 7.68962 69.9427 8.63017V10.253H71.312V7.82841C71.312 3.93852 74.4654 0.785156 78.3552 0.785156H85.3981C86.3408 0.785156 87.9661 1.02462 89.3197 2.3796C90.6725 3.73368 90.9106 5.3577 90.9106 6.29819V13.0637C93.2858 10.7491 96.3713 9.78659 99.5914 9.78659C100.323 9.78659 101.051 9.84633 101.767 9.97228V7.82841C101.767 3.93852 104.92 0.785156 108.81 0.785156H115.574C116.516 0.785156 118.142 1.02463 119.495 2.37956C120.848 3.73362 121.086 5.35763 121.086 6.29819V10.6423C121.811 10.3901 122.59 10.253 123.401 10.253H130.304C130.908 10.253 131.791 10.3511 132.703 10.7769C134.113 10.0905 135.652 9.78659 137.2 9.78659C137.868 9.78659 138.969 9.83009 140.076 10.2454C140.333 10.3419 140.897 10.5584 141.513 10.9718C141.739 10.9048 141.966 10.8427 142.19 10.785L142.208 10.7803L142.227 10.7757C143.444 10.4711 144.819 10.2249 146.322 10.0231C147.993 9.77106 149.689 9.64668 151.408 9.64668C156.057 9.64668 160.53 10.4555 163.803 13.0366C163.849 13.0716 163.893 13.1068 163.938 13.1422C165.208 11.4052 167.26 10.253 169.626 10.253H175.351C176.241 10.253 177.715 10.4628 179.011 11.5834C180.18 10.7407 181.609 10.253 183.131 10.253H187.699C188.932 10.253 190.279 10.6633 191.387 11.6597C192.569 10.7737 194.034 10.253 195.611 10.253H202.05C203.361 10.253 205.25 10.7534 206.5 12.5603C207.529 14.0476 207.505 15.5822 207.455 16.2424L207.438 16.4627L207.401 16.6805C206.717 20.7929 206.016 24.9362 205.301 29.1105L203.448 39.912C202.869 43.2931 199.937 45.7648 196.506 45.7648H188.724C187.639 45.7648 186.618 45.4674 185.738 44.9506C185.307 44.6979 184.928 44.3992 184.599 44.0709C183.354 45.1366 181.744 45.7648 180.017 45.7648H172.322C171.238 45.7648 170.216 45.4673 169.336 44.9506C169.157 44.8451 168.984 44.7302 168.818 44.6064C167.579 45.5787 166.218 45.7648 165.387 45.7648H162.265C160.04 45.7648 157.884 45.3048 155.878 44.3251L155.855 44.3143L155.834 44.3033C155.568 44.1703 155.309 44.028 155.056 43.8767C154.816 44.0539 154.568 44.2234 154.313 44.3848L154.298 44.3944L154.283 44.4038C152.119 45.7502 149.649 46.2312 147.215 46.2312C144.11 46.2312 141.057 45.3653 138.642 43.1245C137.299 41.8785 136.377 40.4133 135.816 38.8253C135.761 42.6674 132.629 45.7648 128.773 45.7648H121.87C120.985 45.7648 119.499 45.5538 118.201 44.4073C117.035 45.2608 115.598 45.7648 114.043 45.7648H107.28C106.576 45.7648 105.494 45.6316 104.427 45.0017C102.737 45.8651 100.89 46.2312 99.0323 46.2312C96.5679 46.2312 94.2367 45.5886 92.2615 44.2103C90.916 45.5301 89.3136 45.7648 88.3801 45.7648H83.1149C80.6153 45.7648 78.1925 45.1555 76.0957 43.7465ZM88.8665 40.4575C88.884 40.3977 88.8927 40.3291 88.8927 40.2518V34.0865C88.8927 33.754 88.8133 33.44 88.6724 33.1626C88.3695 32.5662 87.7825 32.1383 87.0896 32.0572C87.0108 32.048 86.9307 32.0432 86.8494 32.0432H86.7493C86.4697 32.0432 86.2523 31.9655 86.097 31.81C85.9727 31.6857 85.9106 31.4991 85.9106 31.2504V6.29819C85.9106 5.95617 85.7398 5.78516 85.3981 5.78516H78.3552C77.2268 5.78516 76.312 6.69995 76.312 7.82841V34.0487C76.312 35.6626 76.6429 36.9856 77.3048 38.0178C77.5611 38.4174 77.8669 38.7734 78.2224 39.0858C79.496 40.2052 81.1268 40.7648 83.1149 40.7648H88.3801C88.6446 40.7648 88.8067 40.6624 88.8665 40.4575ZM92.0896 33.1626C92.0896 33.4788 92.0999 33.7868 92.1204 34.0865C92.2572 36.0768 92.8479 37.7036 93.8927 38.9668C93.9128 38.9911 93.933 39.0152 93.9534 39.0392C95.1959 40.5005 96.8889 41.2312 99.0323 41.2312C100.062 41.2312 100.98 41.0605 101.786 40.7192C102.095 40.5884 102.388 40.4326 102.664 40.2518C102.688 40.236 102.712 40.2199 102.736 40.2037C102.823 40.1446 102.909 40.0829 102.993 40.0186C103.759 39.4319 104.469 38.7142 105.121 37.8655C105.224 37.7302 105.327 37.5917 105.428 37.4498C105.504 37.3425 105.58 37.2334 105.654 37.1223C105.769 36.952 105.959 36.8471 106.164 36.8471C106.312 36.8471 106.447 36.8999 106.551 36.9877C106.683 37.0983 106.767 37.2642 106.767 37.4498V40.2518C106.767 40.5938 106.938 40.7648 107.28 40.7648H114.043C115.171 40.7648 116.086 39.85 116.086 38.7216V6.29819C116.086 5.95617 115.915 5.78516 115.574 5.78516H108.81C107.682 5.78516 106.767 6.69995 106.767 7.82841V18.1183C106.767 18.3101 106.675 18.4803 106.533 18.5873C106.453 18.6469 106.358 18.6868 106.255 18.6997C106.231 18.7028 106.206 18.7043 106.181 18.7043C105.968 18.7043 105.772 18.5875 105.662 18.4047C105.604 18.3075 105.544 18.212 105.483 18.1183C105.396 17.9863 105.307 17.8576 105.215 17.7322C104.669 16.9907 104.021 16.3664 103.272 15.8593C103.071 15.7184 102.861 15.5915 102.643 15.4784C102.364 15.3332 102.072 15.2109 101.767 15.1115C101.103 14.8949 100.378 14.7866 99.5914 14.7866C97.1684 14.7866 95.3046 15.5484 94 17.0719C92.7264 18.5955 92.0896 20.6943 92.0896 23.3683V33.1626ZM101.921 32.3697C102.147 32.6162 102.488 32.7813 102.944 32.8649C103.179 32.9079 103.443 32.9294 103.738 32.9294C104.415 32.9294 105.028 32.8664 105.579 32.7403C105.803 32.6889 106 32.5879 106.164 32.4508C106.352 32.2949 106.499 32.0925 106.6 31.8638C106.71 31.6182 106.767 31.3422 106.767 31.0608V24.6011C106.767 24.281 106.695 23.9635 106.551 23.6922C106.458 23.515 106.334 23.3575 106.181 23.2319C106.069 23.1397 105.94 23.0647 105.796 23.0116C105.626 22.949 105.453 22.8969 105.276 22.8552C104.748 22.6998 104.235 22.622 103.738 22.622C103.461 22.622 103.207 22.6464 102.979 22.6951C101.901 22.9243 101.362 23.6928 101.362 25.0007V30.5974C101.362 31.4369 101.548 32.0277 101.921 32.3697ZM140.776 29.5181C140.347 30.467 140.132 31.573 140.132 32.8361V34.655C140.132 36.6761 140.769 38.2774 142.043 39.4589C143.316 40.6405 145.04 41.2312 147.215 41.2312C148.899 41.2312 150.299 40.9186 151.413 40.2934C151.418 40.2906 151.423 40.2877 151.428 40.2848C151.5 40.244 151.571 40.2019 151.641 40.1585C152.041 39.9056 152.413 39.6187 152.756 39.2979C152.973 39.0948 153.179 38.8781 153.373 38.6478C153.689 38.2733 153.974 37.863 154.23 37.4166C154.362 37.1847 154.605 37.0337 154.872 37.0337C155.147 37.0337 155.394 37.1938 155.529 37.4332C155.56 37.4884 155.592 37.543 155.624 37.5968C155.757 37.8157 155.901 38.0232 156.057 38.2194C156.196 38.3943 156.345 38.5602 156.503 38.717C156.95 39.1608 157.473 39.5325 158.071 39.832C158.211 39.9002 158.352 39.9647 158.495 40.0254C158.495 40.0256 158.496 40.0258 158.496 40.0261C159.654 40.5186 160.91 40.7648 162.265 40.7648H165.387C165.728 40.7648 165.899 40.5938 165.899 40.2518V34.0941C165.899 33.5426 165.557 33.0711 165.074 32.8801C164.925 32.8216 164.764 32.7895 164.595 32.7895C164.533 32.7895 164.472 32.7819 164.411 32.7669C164.28 32.7347 164.151 32.6875 164.036 32.6186C163.818 32.489 163.709 32.2506 163.709 31.9033V24.3477C163.709 22.5936 163.443 21.0894 162.911 19.8351C162.414 18.6658 161.686 17.7137 160.727 16.9787C158.77 15.424 155.664 14.6467 151.408 14.6467C149.917 14.6467 148.457 14.7555 147.028 14.9732C145.908 15.1226 144.918 15.292 144.057 15.4814C143.844 15.5284 143.638 15.5767 143.44 15.6261C143.258 15.6733 143.088 15.7199 142.933 15.766C142.267 15.9628 141.846 16.1493 141.67 16.3257C141.577 16.419 141.53 16.5744 141.53 16.7921V22.7897C141.53 23.238 141.893 23.6015 142.342 23.6015C142.421 23.6015 142.501 23.5897 142.577 23.5669C143.072 23.4194 143.567 23.2858 144.064 23.166C144.67 23.02 145.277 22.8946 145.885 22.7897C146.1 22.7528 146.314 22.7184 146.529 22.6866C146.529 22.6865 146.53 22.6865 146.53 22.6864C146.866 22.6365 147.203 22.593 147.541 22.5556C148.546 22.4444 149.556 22.3888 150.569 22.3888C150.626 22.3888 150.681 22.3891 150.736 22.3896C152.26 22.4032 153.291 22.605 153.831 22.9952C153.915 23.0478 153.992 23.1077 154.064 23.1746C154.499 23.5817 154.716 24.2526 154.716 25.1872C154.716 25.3363 154.666 25.4738 154.582 25.5837C154.463 25.7396 154.275 25.8402 154.064 25.8402H147.541C145.984 25.8402 144.657 26.1105 143.56 26.6511C143.542 26.6602 143.523 26.6693 143.505 26.6786C143.083 26.8915 142.695 27.145 142.342 27.4391C142.239 27.5246 142.139 27.6135 142.043 27.7058C141.785 27.9571 141.554 28.2275 141.348 28.5169C141.127 28.8286 140.936 29.1623 140.776 29.5181ZM149.175 30.8402C148.955 31.1396 148.845 31.4939 148.845 31.9033V33.0227C148.845 33.9562 149.283 34.4518 150.158 34.5094C150.216 34.5132 150.275 34.5151 150.337 34.5151C150.368 34.5151 150.399 34.515 150.43 34.5146C150.52 34.5137 150.61 34.5114 150.7 34.5077C151.367 34.4802 152.012 34.3764 152.634 34.1963C152.707 34.1749 152.781 34.1525 152.854 34.129C153.18 34.0241 153.501 33.8978 153.814 33.7501C154.394 33.4774 154.716 32.8672 154.716 32.2267C154.716 32.1623 154.713 32.0987 154.707 32.036C154.659 31.5624 154.433 31.1412 154.097 30.8401C154.086 30.83 154.075 30.8201 154.064 30.8103C153.738 30.5322 153.316 30.3642 152.854 30.3642H150.43C150.398 30.3642 150.367 30.3647 150.337 30.3657C150.33 30.3659 150.323 30.3662 150.316 30.3664C149.843 30.3854 149.477 30.5245 149.218 30.784C149.203 30.8025 149.189 30.8212 149.175 30.8402ZM149.833 31.3982C149.785 31.5716 149.753 31.7414 149.735 31.9033C149.722 32.0154 149.716 32.1237 149.716 32.2267C149.716 32.5017 149.752 32.7685 149.818 33.0227C149.922 33.4173 150.1 33.7816 150.337 34.0995C150.358 34.1281 150.38 34.1562 150.402 34.184C150.411 34.1725 150.42 34.161 150.43 34.1495C150.75 33.7581 151.124 33.4054 151.542 33.1052L150.339 31.9033L150.337 31.9012L149.833 31.3982ZM153.701 32.1538C153.598 32.1753 153.495 32.1997 153.394 32.2267C153.307 32.2502 153.22 32.2757 153.134 32.3032C153.039 32.3334 152.946 32.3659 152.854 32.4007C152.503 32.5336 152.17 32.6995 151.858 32.8937L149.862 31.2986C149.909 31.1468 149.968 30.993 150.041 30.8402H152.97C153.282 31.2048 153.483 31.5733 153.613 31.9033C153.647 31.9897 153.676 32.0734 153.701 32.1538ZM137.756 24.9891C137.844 25.0123 137.932 25.0364 138.019 25.0613C138.094 25.0826 138.172 25.0939 138.25 25.0939C138.589 25.0939 138.879 24.8868 139.002 24.5921C139.009 24.5742 139.016 24.556 139.022 24.5375C139.049 24.4564 139.064 24.3696 139.064 24.2794V15.766C139.064 15.5484 138.986 15.3618 138.831 15.2063C138.738 15.1131 138.567 15.0198 138.319 14.9265C138.07 14.8332 137.697 14.7866 137.2 14.7866C137.088 14.7866 136.977 14.7893 136.868 14.7947C136.476 14.8139 136.106 14.8678 135.76 14.9564C135.138 15.115 134.59 15.3849 134.114 15.766C134.097 15.7794 134.081 15.793 134.064 15.8066C134.064 15.8067 134.064 15.8066 134.064 15.8066C134.03 15.8347 133.997 15.8636 133.963 15.8928C133.875 15.9708 133.789 16.0529 133.706 16.1391C132.958 16.9156 132.37 18.0384 131.943 19.5074C131.93 19.5519 131.918 19.5967 131.905 19.6418C131.863 19.7936 131.761 19.9178 131.63 19.9896C131.559 20.0282 131.479 20.0516 131.396 20.0561C131.386 20.0566 131.376 20.0569 131.366 20.0569C131.063 20.0569 130.817 19.8109 130.817 19.5074V15.766C130.817 15.424 130.646 15.253 130.304 15.253H123.401C122.273 15.253 121.358 16.1678 121.358 17.2962V40.2518C121.358 40.5938 121.529 40.7648 121.87 40.7648H128.773C129.902 40.7648 130.817 39.85 130.817 38.7216V26.8456C130.817 26.1341 131.179 25.4535 131.837 25.1833C132.073 25.0866 132.315 25.0015 132.564 24.9277C132.587 24.9208 132.611 24.9141 132.634 24.9074C132.809 24.8489 132.99 24.7982 133.177 24.7554C133.684 24.6391 134.233 24.5809 134.824 24.5809C135.414 24.5809 135.973 24.6275 136.501 24.7208C136.63 24.7422 136.757 24.7652 136.883 24.7899C137.179 24.8474 137.47 24.9138 137.756 24.9891ZM170.899 37.1868C171.032 37.9345 171.165 38.6763 171.297 39.4123C171.393 39.8459 171.499 40.1675 171.614 40.3772C171.673 40.4856 171.761 40.5763 171.868 40.6389C172.011 40.7228 172.162 40.7648 172.322 40.7648H180.017C180.946 40.7648 181.759 40.1378 181.993 39.2385C182.08 38.9049 182.163 38.5854 182.242 38.2799C182.292 38.0892 182.34 37.904 182.386 37.7242C182.39 37.7103 182.393 37.6963 182.397 37.6824C182.425 37.573 182.453 37.4655 182.48 37.3601C182.688 36.5535 182.874 35.7578 183.039 34.973C183.05 34.9192 183.061 34.8655 183.072 34.8119C183.092 34.7128 183.113 34.6139 183.132 34.5151C183.287 33.7423 183.441 32.9055 183.596 32.0046C183.614 31.8997 183.631 31.7939 183.649 31.6872C183.654 31.662 183.658 31.6367 183.662 31.6114C183.672 31.5535 183.682 31.4953 183.691 31.4369C183.881 30.4362 184.081 29.2354 184.294 27.8347C184.302 27.7812 184.31 27.7275 184.319 27.6734C184.36 27.3974 184.597 27.1927 184.876 27.1927C185.158 27.1927 185.397 27.4015 185.435 27.681C185.442 27.736 185.449 27.7907 185.457 27.8451C185.637 29.1808 185.794 30.3314 185.928 31.297C185.959 31.4762 185.989 31.652 186.019 31.8244C186.022 31.8425 186.025 31.8606 186.028 31.8786C186.037 31.9307 186.046 31.9826 186.055 32.0341C186.193 32.8257 186.321 33.5438 186.441 34.1887C186.519 34.5308 186.598 34.8757 186.677 35.2234C186.785 35.6973 186.892 36.1763 187 36.6606C187.117 37.1711 187.247 37.7312 187.39 38.3409C187.473 38.6967 187.56 39.0694 187.652 39.4589C187.772 39.8681 187.892 40.1747 188.013 40.3789C188.075 40.4854 188.163 40.5763 188.269 40.6389C188.412 40.7228 188.564 40.7648 188.724 40.7648H196.506C197.502 40.7648 198.352 40.0478 198.52 39.0669L200.373 28.2654C200.833 25.5817 201.286 22.9109 201.734 20.253C201.734 20.2488 201.735 20.2447 201.736 20.2406C201.841 19.6164 201.946 18.9929 202.05 18.3701C202.19 17.5319 202.33 16.695 202.469 15.8593C202.5 15.4551 202.361 15.253 202.05 15.253H195.611C194.663 15.253 193.854 15.9015 193.63 16.7959C193.606 16.8942 193.588 16.9955 193.578 17.0992C193.355 19.4433 193.149 21.6828 192.96 23.8177C192.959 23.8283 192.958 23.8389 192.957 23.8495C192.944 24.0005 192.93 24.1511 192.917 24.3011C192.834 25.3689 192.769 26.4232 192.723 27.464C192.657 28.9313 192.627 30.3717 192.633 31.7851C192.633 31.8062 192.633 31.8273 192.633 31.8485C192.634 32.161 192.382 32.4164 192.07 32.4164C191.783 32.4164 191.543 32.2004 191.51 31.9158C191.507 31.8952 191.505 31.8747 191.503 31.8541C191.338 30.4531 191.124 29.0293 190.859 27.5828C190.67 26.5472 190.455 25.4999 190.215 24.441C190.189 24.3226 190.164 24.204 190.138 24.0851C190.136 24.0755 190.134 24.066 190.132 24.0564C189.648 21.8264 189.124 19.4942 188.56 17.0598C188.46 16.6317 188.36 16.2004 188.258 15.766C188.165 15.424 187.978 15.253 187.699 15.253H183.131C182.178 15.253 181.351 15.9122 181.14 16.8417C181.124 16.9123 181.108 16.9828 181.092 17.0532C180.504 19.6444 179.957 22.0915 179.451 24.3943C179.45 24.4025 179.448 24.4107 179.446 24.4189C179.444 24.4298 179.442 24.4406 179.439 24.4514C179.218 25.5156 179.019 26.5578 178.841 27.578C178.585 29.0518 178.375 30.4797 178.21 31.8616C178.208 31.881 178.206 31.9005 178.203 31.9199C178.17 32.2024 177.931 32.4164 177.647 32.4164C177.333 32.4164 177.081 32.1581 177.086 31.8445C177.086 31.8257 177.087 31.8068 177.087 31.788C177.108 30.3462 177.08 28.9044 177.003 27.4626C176.954 26.5331 176.885 25.6037 176.795 24.6742C176.772 24.3946 176.747 24.1116 176.722 23.8251C176.722 23.815 176.721 23.8048 176.72 23.7946C176.532 21.6432 176.303 19.2966 176.033 16.755C176.008 16.5203 175.982 16.2839 175.957 16.0459C175.926 15.7038 175.863 15.4862 175.77 15.3929C175.677 15.2996 175.537 15.253 175.351 15.253H169.626C168.358 15.253 167.396 16.3969 167.61 17.6473C167.658 17.9293 167.706 18.2114 167.754 18.4934C168.079 20.4038 168.398 22.3143 168.709 24.2247C168.891 25.3384 169.07 26.4521 169.247 27.5658C169.408 28.5305 169.568 29.4866 169.729 30.4341C169.938 31.6687 170.147 32.8887 170.357 34.0941C170.538 35.1359 170.718 36.1668 170.899 37.1868ZM11.6855 31.9527C11.704 31.9397 11.7226 31.9268 11.7412 31.9137C11.7517 31.9063 11.7622 31.8989 11.7728 31.8915C11.7833 31.8841 11.7939 31.8766 11.8044 31.8692C11.9883 31.739 12.1755 31.6018 12.3658 31.4576C12.6005 31.2728 12.8351 31.084 13.0698 30.8914C13.0917 30.8734 13.1136 30.8554 13.1355 30.8373C13.2664 30.7295 13.3973 30.6204 13.5282 30.5101C13.7534 30.3204 13.9786 30.1271 14.2038 29.9303C14.2276 29.9095 14.2515 29.8886 14.2753 29.8677C14.2991 29.8468 14.3229 29.8259 14.3467 29.805C14.5049 29.6656 14.6631 29.5245 14.8213 29.3817C14.8645 29.3427 14.9077 29.3035 14.951 29.2642C15.0542 29.1292 15.1526 28.9996 15.2462 28.8755C15.3379 28.7538 15.4249 28.6374 15.5074 28.5262C15.5221 28.5063 15.5368 28.4865 15.5512 28.4669C15.5521 28.4657 15.553 28.4645 15.5539 28.4633C15.5611 28.4535 15.5683 28.4438 15.5754 28.4342C15.6902 28.2784 15.7954 28.1335 15.891 27.9994C16.0787 27.736 16.2295 27.5142 16.3433 27.334C16.3469 27.3282 16.3505 27.3225 16.3541 27.3168C16.3547 27.3158 16.3553 27.3148 16.356 27.3138C16.3577 27.3111 16.3594 27.3084 16.361 27.3057C16.3913 27.2617 16.42 27.2187 16.4471 27.177C16.4504 27.172 16.4536 27.167 16.4568 27.1621C16.4598 27.1574 16.4627 27.1528 16.4657 27.1482C16.4854 27.1173 16.5043 27.0871 16.5223 27.0575C16.5389 27.0301 16.5548 27.0033 16.5698 26.9771C16.5885 26.9446 16.606 26.913 16.6222 26.8823C16.6413 26.8463 16.6588 26.8116 16.6746 26.7779C16.7528 26.6121 16.7919 26.4747 16.7919 26.3657C16.8014 26.2801 16.8005 26.1946 16.7893 26.1091C16.7889 26.1059 16.7884 26.1028 16.788 26.0997C16.785 26.078 16.7812 26.0562 16.7768 26.0345C16.7652 25.977 16.7489 25.9195 16.7279 25.862C16.7034 25.7949 16.6725 25.7278 16.6352 25.6606C16.5835 25.5572 16.4966 25.4794 16.3744 25.4271C16.35 25.4167 16.3242 25.4073 16.297 25.3989C16.2744 25.392 16.2508 25.3857 16.2263 25.3801C16.17 25.3674 16.1085 25.3583 16.042 25.353C15.9943 25.3492 15.9439 25.3473 15.891 25.3473C15.8783 25.3473 15.8653 25.3476 15.8521 25.3481C15.7319 25.3531 15.5932 25.3812 15.4361 25.4322C15.4236 25.4363 15.4109 25.4405 15.3981 25.4449C15.3425 25.4639 15.2846 25.4857 15.2246 25.5103C15.1334 25.5476 15.037 25.5913 14.9356 25.6414C14.8582 25.6797 14.7778 25.7217 14.6944 25.7674C14.615 25.8109 14.5329 25.8578 14.448 25.9082C14.4268 25.9207 14.4055 25.9335 14.3839 25.9465C14.3784 25.9498 14.3729 25.9531 14.3674 25.9565C14.3399 25.9732 14.3121 25.9902 14.284 26.0076C14.2485 26.0295 14.2126 26.052 14.1762 26.075C14.1518 26.0905 14.1272 26.1062 14.1024 26.1222C14.098 26.125 14.0936 26.1278 14.0892 26.1307C14.0611 26.1483 14.0331 26.1659 14.0053 26.1835C13.9192 26.2379 13.8344 26.292 13.751 26.3458C13.7407 26.3524 13.7304 26.359 13.7202 26.3657C13.5477 26.4771 13.381 26.5872 13.22 26.6959C13.1939 26.7135 13.168 26.7311 13.1422 26.7487C13.042 26.8168 12.9441 26.8844 12.8485 26.9515C12.7888 26.9934 12.73 27.0351 12.6721 27.0766C12.6286 27.1077 12.5856 27.1387 12.5431 27.1696C12.4859 27.2112 12.4296 27.2526 12.3742 27.2938C12.2962 27.3518 12.2199 27.4093 12.1455 27.4665C12.1049 27.4977 12.0648 27.5287 12.0253 27.5597C11.7941 27.7404 11.5812 27.9169 11.3866 28.0891C11.1298 28.3163 10.8805 28.5546 10.6386 28.8042C10.5857 28.8588 10.5331 28.914 10.4809 28.9696C10.4785 28.9722 10.4761 28.9748 10.4737 28.9774C10.4625 28.9894 10.4513 29.0014 10.4401 29.0134C10.3575 29.1022 10.2759 29.1923 10.1952 29.2838C10.1243 29.3642 10.054 29.4456 9.98449 29.5281C9.96256 29.5541 9.94071 29.5802 9.91893 29.6064C9.88689 29.645 9.85499 29.6838 9.82325 29.7227C9.71594 29.8546 9.61034 29.989 9.50645 30.1259C9.41672 30.2381 9.32217 30.355 9.22281 30.4768C9.19083 30.516 9.15836 30.5557 9.12538 30.5959C9.11088 30.6136 9.09629 30.6314 9.0816 30.6492C9.0536 30.6833 9.02525 30.7177 8.99655 30.7524C8.96853 30.7864 8.94017 30.8206 8.91148 30.8552C8.90341 30.865 8.89532 30.8747 8.8872 30.8845C8.85892 30.9185 8.83033 30.9529 8.80141 30.9876C8.79742 30.9925 8.79343 30.9974 8.78944 31.0022C8.7256 31.0802 8.6637 31.1553 8.60373 31.2274C8.52851 31.3179 8.45634 31.4038 8.38722 31.4852C8.34834 31.5309 8.31042 31.5752 8.27346 31.6181C8.23974 31.6572 8.20682 31.6951 8.17471 31.7318L7.93969 32.0452C7.93969 32.1363 7.82055 32.2472 7.58225 32.378C7.5711 32.3841 7.55968 32.3903 7.548 32.3965C7.53347 32.4042 7.51852 32.412 7.50318 32.4199C7.49221 32.4255 7.48104 32.4312 7.46966 32.4369C7.38792 32.4815 7.30935 32.5197 7.23396 32.5516C7.22104 32.5571 7.20821 32.5623 7.19548 32.5674C7.0214 32.6371 6.86472 32.6719 6.72545 32.6719C6.621 32.6197 6.47738 32.5283 6.29459 32.3977C6.19342 32.2965 6.11402 32.179 6.05641 32.0452C6.0248 31.9718 5.99974 31.8934 5.98124 31.8102C5.74623 31.6274 5.55038 31.4707 5.39371 31.3401C5.23703 31.1835 5.15869 30.9354 5.15869 30.5959C5.15869 30.4294 5.17528 30.2297 5.20847 29.9968C5.21691 29.9375 5.22643 29.8761 5.23703 29.8125C5.25564 29.7381 5.27572 29.6585 5.29728 29.5738C5.31747 29.4944 5.33896 29.4105 5.36173 29.322C5.36531 29.3081 5.36893 29.2941 5.37258 29.28C5.38499 29.2318 5.39778 29.1824 5.41095 29.1317C5.43707 29.031 5.46465 28.9252 5.49369 28.8143C5.49425 28.8121 5.49482 28.8099 5.49538 28.8078C5.51317 28.7399 5.5315 28.67 5.55038 28.5983C5.56262 28.5453 5.57493 28.4921 5.58732 28.4388C5.59258 28.4162 5.59785 28.3935 5.60313 28.3708C5.60628 28.3573 5.60944 28.3438 5.6126 28.3303C5.65388 28.1534 5.69603 27.9749 5.73904 27.7946C5.77419 27.6473 5.80992 27.4988 5.84622 27.3492C5.85646 27.307 5.86673 27.2647 5.87706 27.2224C5.93638 26.979 5.99722 26.7326 6.05958 26.4832C6.06594 26.4568 6.07229 26.4306 6.07861 26.4046C6.23821 25.7472 6.38776 25.1804 6.52725 24.704C6.54119 24.6564 6.55504 24.6097 6.56878 24.5639C6.60587 24.4526 6.64081 24.3516 6.67359 24.2607C6.8024 23.9039 6.89802 23.7046 6.96047 23.663L7.11714 23.3105C7.15476 23.2258 7.18561 23.1361 7.20968 23.0413C7.25244 22.8729 7.27382 22.6884 7.27382 22.4879C7.28466 22.4229 7.29663 22.3595 7.30972 22.2978C7.31145 22.2897 7.31319 22.2816 7.31495 22.2736C7.32056 22.2479 7.32637 22.2226 7.33238 22.1975C7.34787 22.1328 7.36468 22.0701 7.38281 22.0094C7.41944 21.8867 7.46145 21.772 7.50883 21.6654C7.59119 21.5171 7.67071 21.3638 7.74697 21.2074C7.82677 21.0437 7.90299 20.8767 7.97514 20.7089C8.04572 20.5447 8.11239 20.3797 8.17471 20.2161C8.26038 19.9912 8.35484 19.7378 8.45809 19.4558C8.46593 19.4344 8.47382 19.4128 8.48176 19.3911C8.62423 19.001 8.78301 18.5579 8.95809 18.0618C8.95809 17.9835 9.04948 17.7354 9.23227 17.3176C9.41506 16.8737 9.63702 16.3645 9.89814 15.79C9.97669 15.6094 10.0552 15.4276 10.1338 15.2446C10.1379 15.2349 10.1421 15.2252 10.1462 15.2156C10.3246 14.7995 10.5031 14.3773 10.6815 13.9491C10.715 13.873 10.7478 13.798 10.7798 13.724C10.9623 13.3031 11.1218 12.9167 11.2583 12.5647C11.2785 12.5126 11.2982 12.4612 11.3174 12.4106C11.3237 12.3941 11.3299 12.3776 11.3361 12.3612C11.3533 12.3154 11.3702 12.2702 11.3866 12.2256C11.4972 12.069 11.6013 11.9123 11.6988 11.7556C11.8282 11.5478 11.9462 11.3401 12.0527 11.1323C12.069 11.1005 12.0851 11.0687 12.1008 11.037C12.1245 10.9893 12.1475 10.9416 12.1699 10.8939C12.405 10.4239 12.6139 10.1497 12.7967 10.0714C12.9272 10.0452 13.1492 10.0975 13.4625 10.228C13.802 10.3586 14.1415 10.5283 14.4809 10.7372C14.8204 10.9461 15.0554 11.155 15.186 11.3639C15.2643 11.4945 15.3035 11.6251 15.3035 11.7556C15.3265 11.8709 15.2885 12.0573 15.1895 12.3149C15.1803 12.339 15.1705 12.3637 15.1602 12.389C15.1558 12.3997 15.1514 12.4106 15.1468 12.4215C15.0458 12.6436 14.8903 12.9828 14.68 13.439C14.6184 13.5729 14.552 13.7168 14.4809 13.8707C14.4712 13.891 14.4613 13.9115 14.4514 13.9323C14.4001 14.0391 14.3456 14.1528 14.2877 14.2735C14.1497 14.5613 13.9929 14.8887 13.8172 15.2556C13.8076 15.2756 13.798 15.2958 13.7883 15.3161C13.5971 15.7155 13.384 16.1607 13.1492 16.6518C13.0766 16.8074 13.0055 16.9604 12.936 17.1108C12.9283 17.1274 12.9207 17.1439 12.9131 17.1604C12.7723 17.4653 12.638 17.7595 12.5101 18.0431C12.5073 18.0493 12.5044 18.0556 12.5016 18.0618C12.4759 18.1189 12.4504 18.1756 12.4252 18.2318C12.3737 18.3464 12.3234 18.4592 12.2742 18.5702C12.2644 18.5921 12.2548 18.614 12.2451 18.6357C12.1682 18.8094 12.094 18.9786 12.0225 19.1434C11.8848 19.4606 11.757 19.7612 11.6391 20.0453C11.6204 20.0904 11.6019 20.1352 11.5837 20.1795C11.5288 20.313 11.4761 20.4427 11.4257 20.5687C11.3832 20.682 11.3415 20.7936 11.3005 20.9036C11.2446 21.0538 11.1901 21.2008 11.137 21.3446C11.0797 21.4999 11.0241 21.6515 10.9702 21.7994C10.9581 21.8324 10.9461 21.8653 10.9343 21.8979C10.883 22.0388 10.8334 22.1762 10.7852 22.3102C10.7637 22.3701 10.7425 22.4294 10.7216 22.4879C10.6571 22.6688 10.5955 22.8432 10.5368 23.0112C10.5345 23.0177 10.5323 23.0242 10.53 23.0306C10.5015 23.1124 10.4736 23.1926 10.4465 23.2713C10.4442 23.2787 10.4419 23.2862 10.4396 23.2936C10.4393 23.2946 10.439 23.2956 10.4387 23.2966C10.2997 23.7432 10.1563 24.1761 10.0082 24.5954C10.0048 24.6051 10.0014 24.6148 9.99793 24.6245C9.99304 24.6383 9.98815 24.6521 9.98325 24.6659C9.94819 24.7645 9.91288 24.8623 9.87731 24.9594C9.83355 25.0788 9.78941 25.1971 9.74488 25.3142M11.9707 23.927C11.9139 23.9683 11.858 24.0096 11.8028 24.051C11.6444 24.1697 11.4925 24.2885 11.3474 24.4072C11.1435 24.5741 10.9461 24.7475 10.7554 24.9275C10.6774 25.001 10.6006 25.0757 10.5248 25.1514L10.0964 25.6294C10.0619 25.6678 10.0212 25.6907 9.97916 25.7007M9.69712 25.5024C9.69472 25.4782 9.6962 25.4524 9.7023 25.4256ZM9.74961 25.6242C9.7211 25.5911 9.70178 25.5496 9.69712 25.5024ZM16.123 22.2892C16.4437 22.2389 16.758 22.2138 17.0661 22.2138C17.5754 22.2138 18.0232 22.378 18.4093 22.7064C18.4587 22.7484 18.5071 22.7931 18.5545 22.8405C18.6789 22.9502 18.7991 23.0671 18.9153 23.1911C18.9712 23.2508 19.0261 23.3122 19.0801 23.3753C19.2528 23.5768 19.4157 23.7953 19.569 24.0308C19.5955 24.0715 19.6217 24.1127 19.6476 24.1544C19.6753 24.1989 19.7026 24.244 19.7296 24.2897C20.0124 24.8298 20.118 25.5217 20.0464 26.3657C20.0453 26.3787 20.0441 26.3918 20.0429 26.4048C20.0386 26.4514 20.0337 26.4976 20.0285 26.5435C20.0277 26.5505 20.0269 26.5575 20.026 26.5646C20.0198 26.6178 20.0129 26.6705 20.0054 26.7227C19.9049 27.424 19.6954 28.0361 19.3771 28.5591C19.2774 28.6389 19.1777 28.7414 19.078 28.8668C19.0724 28.8739 19.0668 28.881 19.0612 28.8882C19.0433 28.9113 19.0253 28.9351 19.0073 28.9596C19 28.9696 18.9927 28.9798 18.9854 28.99C18.9631 29.0167 18.9427 29.0427 18.9242 29.0679C18.8344 29.1905 18.7895 29.2951 18.7895 29.3817C18.7671 29.5388 18.5903 29.8406 18.2592 30.2871C18.2068 30.3577 18.1505 30.432 18.0904 30.5099C18.0884 30.5125 18.0865 30.515 18.0845 30.5176C17.8915 30.7559 17.6986 30.9893 17.5057 31.2178C17.3797 31.3669 17.2538 31.5139 17.1279 31.6588C17.0028 31.8027 16.8778 31.9446 16.7527 32.0844C16.5208 32.3292 16.2634 32.574 15.9806 32.8188C15.6903 33.0701 15.3732 33.3215 15.0293 33.5728C14.8122 33.7231 14.5951 33.8694 14.378 34.0116C14.3608 34.0229 14.3435 34.0342 14.3263 34.0455C13.8817 34.3356 13.4371 34.6089 12.9925 34.8654C12.8313 34.9556 12.6757 35.0395 12.5257 35.117C12.5213 35.1193 12.5169 35.1216 12.5125 35.1238C12.4657 35.148 12.4194 35.1715 12.3736 35.1944C12.0769 35.3429 11.803 35.4651 11.5522 35.5612C11.4831 35.5876 11.4158 35.6121 11.3502 35.6346C11.3361 35.6394 11.3221 35.6441 11.3082 35.6487C11.0993 35.6748 10.799 35.7271 10.4073 35.8054C10.0157 35.8576 9.71536 35.9099 9.50645 35.9621C9.46532 35.958 9.42483 35.9534 9.38498 35.9483C9.32607 35.9408 9.26858 35.9322 9.2125 35.9225C8.99183 35.8846 8.7931 35.8302 8.61631 35.7593C8.54116 35.7292 8.46997 35.6961 8.40274 35.66C8.35044 35.6319 8.30054 35.6021 8.25305 35.5704C8.19023 35.519 8.13053 35.4651 8.07396 35.4087C8.01219 35.3471 7.95415 35.2826 7.89982 35.2151C7.85906 35.1644 7.82039 35.1121 7.78381 35.058C7.70965 34.9485 7.6441 34.832 7.58717 34.7087C7.57379 34.6936 7.56074 34.6788 7.548 34.6642C7.36187 34.4505 7.24436 34.2825 7.19548 34.1603C7.16937 34.0297 7.16937 33.9122 7.19548 33.8078H7.548C7.65245 33.7817 7.71774 33.7295 7.74385 33.6511C7.74385 33.5728 7.78302 33.5206 7.86135 33.4944C7.9039 33.4838 7.94645 33.4775 7.98899 33.4755C8.00465 33.4748 8.02031 33.4747 8.03598 33.4751C8.08222 33.4764 8.12846 33.4829 8.17471 33.4944C8.38755 33.5056 8.61962 33.4808 8.87091 33.4199C8.94993 33.4008 9.03086 33.3781 9.11368 33.3518C9.2365 33.3128 9.36349 33.266 9.49467 33.2114C9.5751 33.1779 9.6571 33.1414 9.74067 33.1021C9.75873 33.0935 9.77685 33.0849 9.79505 33.0761C9.81514 33.0664 9.83531 33.0566 9.85557 33.0465C9.86994 33.0394 9.88437 33.0322 9.89883 33.0249C9.92457 33.012 9.95046 32.9987 9.97648 32.9852C9.99358 32.9767 10.0107 32.9681 10.0279 32.9594C10.1353 32.9049 10.2441 32.8474 10.3542 32.7868C10.4631 32.7269 10.5733 32.6641 10.6848 32.5982C10.6944 32.5925 10.704 32.5869 10.7137 32.5812C10.7205 32.5771 10.7273 32.573 10.7342 32.569C10.7924 32.5343 10.851 32.4987 10.9099 32.4624C11.0763 32.3599 11.2455 32.251 11.4177 32.1357C11.4288 32.1282 11.44 32.1206 11.4512 32.1131C11.4845 32.0907 11.5179 32.0681 11.5514 32.0452C11.5944 32.0158 11.6375 31.986 11.6809 31.9558C11.6824 31.9548 11.6839 31.9537 11.6855 31.9527M0.695699 27.3993C0.853426 26.7179 1.02291 26.0148 1.20399 25.29C1.39828 24.4862 1.58996 23.7594 1.77965 23.1272L1.80141 23.0546L1.82536 22.9828C1.93395 22.657 2.06637 22.2835 2.21844 21.9338C2.25011 21.8609 2.29135 21.7687 2.34227 21.6634C2.44842 21.0276 2.62958 20.3326 2.93977 19.6347L3.03007 19.4315L3.13805 19.2372C3.25324 19.0298 3.38272 18.75 3.50227 18.4362C3.6708 17.9938 3.88551 17.4063 4.14876 16.6644C4.15195 16.653 4.1547 16.6433 4.15694 16.6354C4.15829 16.6306 4.15945 16.6265 4.1604 16.6231C4.2218 16.4039 4.28837 16.2148 4.33492 16.0885C4.42408 15.8465 4.52879 15.5955 4.6293 15.3644C4.83169 14.8749 5.06606 14.3385 5.32877 13.7596C5.57404 13.195 5.81984 12.6171 6.06614 12.026L6.0851 11.9805L6.10495 11.9354C6.36408 11.3465 6.55727 10.8706 6.69485 10.4971L6.92231 9.87975L7.30173 9.34223C7.46465 9.11143 7.57351 8.91864 7.64586 8.76492L7.6712 8.71107L7.69781 8.65783C7.89058 8.2723 8.16082 7.78448 8.52572 7.30553C8.8193 6.92021 9.556 6.02037 10.827 5.47563L11.3056 5.27055L11.8161 5.16844C12.916 4.94847 13.8261 5.13441 14.2063 5.22385C14.6444 5.32694 15.0283 5.46652 15.3207 5.58589C15.9497 5.83251 16.5433 6.13547 17.1014 6.47894C17.7373 6.87022 18.7099 7.56824 19.426 8.71394L19.45 8.75248L19.4734 8.79146C19.8871 9.48087 20.2203 10.3534 20.29 11.3646C20.3608 12.194 20.2238 12.8555 20.151 13.1652C20.0401 13.6365 19.8869 14.0451 19.7622 14.3446L19.7316 14.418L19.6986 14.4905C19.5615 14.7922 19.3342 15.2869 19.0207 15.966L19.0049 16.0003L18.9885 16.0344C18.8197 16.3861 18.6125 16.8184 18.3669 17.3315C19.1338 17.4727 19.8588 17.7381 20.5244 18.113C21.5073 16.8047 22.8041 16.173 23.7951 15.8681C24.831 15.5494 25.9326 15.4558 27.0442 15.6268C27.7364 15.7333 28.438 15.9597 29.0944 16.3211C29.5975 16.0701 30.0418 15.947 30.3202 15.8828C30.9076 15.7472 31.4265 15.7253 31.7676 15.7253C32.9947 15.7253 34.0406 16.0802 34.7847 16.4155C35.8736 16.8771 37.0345 17.6743 37.866 18.981L37.9765 19.1546L38.0723 19.3367C38.8033 20.7255 39.0387 22.1835 38.9997 23.5277C38.9827 25.0074 38.5861 26.4905 37.7198 27.8216C37.714 27.8384 37.7074 27.8578 37.7001 27.8802C37.6804 27.9403 37.6574 28.0161 37.6318 28.1093C37.4946 28.6879 37.3407 29.4814 37.1756 30.5198L37.1497 30.6821L37.1133 30.8423C36.9985 31.3476 36.8684 31.9605 36.7227 32.6866C36.5971 33.4162 36.4588 34.2335 36.3079 35.139L36.2191 35.6721L36.0183 36.1739C35.971 36.2921 35.8654 36.5816 35.6885 37.1124L35.6767 37.1478L35.6644 37.183C35.5986 37.371 35.5572 37.5042 35.5331 37.59C35.5256 37.6167 35.5207 37.6355 35.5178 37.647L35.4917 37.8036L35.4433 37.9973C35.3129 38.5189 35.0842 39.0674 34.9799 39.3176L34.9729 39.3344C34.8343 39.6671 34.6938 39.9916 34.5512 40.3073C34.4371 40.5801 34.2984 40.9043 34.1702 41.1622C32.6899 44.1521 30.7589 46.7749 28.1787 48.5414C26.0999 49.9803 23.7688 50.9973 21.2268 51.2295C20.8669 51.2871 20.4645 51.335 20.0464 51.3489C19.6158 51.3633 18.691 51.3658 17.6738 50.9844C17.219 50.8138 16.748 50.5914 16.3316 50.3832L15.9615 50.1981L15.6268 49.9547C15.3302 49.739 15.0431 49.5259 14.8175 49.3453C14.3481 48.9699 13.6788 48.3321 13.1946 47.3637L13.1731 47.3207L13.1525 47.2773C12.8015 46.5403 11.5694 43.737 13.4531 41.0461C13.9984 40.2671 14.677 39.6678 15.4223 39.2353C14.6223 39.6826 13.763 40.101 12.8894 40.3922L12.4197 40.5487L11.9284 40.6101C11.9253 40.6105 11.8812 40.6165 11.783 40.6335C11.6847 40.6507 11.5544 40.675 11.3879 40.7083L11.2289 40.7401L11.0682 40.7616C10.9198 40.7813 10.8144 40.7977 10.7451 40.8098C10.7193 40.8143 10.7023 40.8175 10.693 40.8193L9.87487 41.0239L9.00894 40.9373C7.97567 40.834 6.68828 40.5365 5.47954 39.7307L5.2761 39.595L5.08686 39.4402C4.42172 38.896 3.86474 38.2501 3.42867 37.5247C3.14523 37.1552 2.80079 36.6365 2.5531 36.0173L2.3826 35.591L2.36413 35.4987C2.23971 35.3478 2.12417 35.1929 2.01724 35.0347L1.85817 34.8757C0.367769 33.3853 0.158691 31.5702 0.158691 30.5959C0.158691 30.0091 0.228299 29.4511 0.305059 28.9906L0.337887 28.7936L0.386317 28.5999C0.467495 28.2752 0.571173 27.8732 0.695699 27.3993ZM21.076 30.5911L20.9178 31.1051C20.8134 31.6013 20.8656 32.0191 21.0745 32.3585C21.1809 32.5314 21.2974 32.6908 21.4241 32.8366C21.4288 32.8419 21.4335 32.8473 21.4382 32.8527C21.5563 32.9868 21.6831 33.1094 21.8187 33.2203M21.076 30.5911L21.3878 29.5775C21.407 29.5128 21.4265 29.4475 21.4464 29.3817C21.4938 29.2241 21.5432 29.0634 21.5945 28.8996C21.6082 28.8556 21.6222 28.8113 21.6362 28.7669C21.786 28.2926 21.9512 27.7925 22.132 27.2666C22.1423 27.2359 22.1525 27.2053 22.1627 27.1747C22.1819 27.1171 22.2011 27.0596 22.2203 27.0022C22.2629 26.8748 22.3055 26.7477 22.3481 26.6209C22.3488 26.6188 22.3495 26.6167 22.3502 26.6146C22.4506 26.3156 22.5511 26.0182 22.6515 25.7225C22.694 25.5971 22.7366 25.4721 22.7792 25.3473C22.7864 25.3261 22.7936 25.3049 22.8009 25.2837C22.8249 25.2132 22.849 25.1427 22.8731 25.0723C22.9133 24.9548 22.9535 24.8376 22.9938 24.7206C23.0262 24.6342 23.0583 24.5488 23.0901 24.4644C23.1219 24.3801 23.1534 24.2968 23.1846 24.2145C23.213 24.1396 23.2411 24.0655 23.2691 23.9922C23.2876 23.9438 23.306 23.8956 23.3243 23.8478C23.3933 23.6674 23.4609 23.492 23.5271 23.3216C23.5398 23.2889 23.5525 23.2564 23.5651 23.224C23.5834 23.1768 23.6017 23.1301 23.6199 23.0837C23.6699 22.9559 23.719 22.8312 23.7673 22.7094C23.7773 22.6842 23.7873 22.6591 23.7972 22.6341C23.8168 22.5849 23.8362 22.5362 23.8555 22.4879C23.8563 22.4859 23.8572 22.4838 23.858 22.4817C23.87 22.4517 23.8819 22.4221 23.8938 22.3929C23.9281 22.3084 23.9617 22.2275 23.9946 22.15C24.0003 22.1365 24.006 22.1232 24.0117 22.1099C24.0235 22.0822 24.0353 22.055 24.047 22.0282C24.0691 21.9775 24.0908 21.9284 24.1123 21.881C24.2654 21.5425 24.4018 21.2879 24.5214 21.117C24.678 20.9081 24.9261 20.7514 25.2656 20.647C25.5076 20.5725 25.7496 20.5379 25.9916 20.543C26.0891 20.5451 26.1865 20.5537 26.284 20.5687C26.4856 20.5997 26.655 20.6676 26.7922 20.7723C26.8859 20.8439 26.9646 20.9327 27.0282 21.0387C27.3154 21.4043 27.4721 21.7698 27.4982 22.1354C27.5322 22.3563 27.4667 22.6656 27.3017 23.0633C27.2874 23.0977 27.2724 23.1328 27.2566 23.1685C27.1801 23.3419 27.0861 23.5309 26.9745 23.7355C26.9664 23.7505 26.9581 23.7654 26.9498 23.7805C26.8454 24.0678 26.7148 24.3811 26.5581 24.7206C26.5499 24.7371 26.5418 24.7534 26.534 24.7693C26.5335 24.7704 26.533 24.7714 26.5325 24.7724C26.5296 24.7784 26.5267 24.7843 26.5238 24.7901C26.4011 25.0422 26.3347 25.2193 26.3245 25.3214C26.3236 25.3307 26.3231 25.3393 26.3231 25.3473C26.31 25.3734 26.2904 25.4324 26.2642 25.5241C26.2426 25.5998 26.2166 25.6977 26.186 25.8179C26.1797 25.8429 26.1732 25.8688 26.1665 25.8956C26.1656 25.9002 26.1648 25.9048 26.1639 25.9094C26.1254 26.1194 26.0799 26.3224 26.0273 26.5184C26.0092 26.5858 25.9903 26.6524 25.9706 26.7182C25.8923 26.9793 25.8139 27.1099 25.7356 27.1099C25.6928 27.1527 25.6478 27.224 25.6006 27.3237C25.5519 27.4267 25.5009 27.56 25.4476 27.7237C25.437 27.7562 25.4263 27.7899 25.4155 27.8248C25.4048 27.8595 25.394 27.8954 25.3831 27.9324C25.3536 28.0577 25.3241 28.1872 25.2946 28.3208C25.2924 28.3309 25.2901 28.3412 25.2879 28.3514C25.2312 28.6096 25.1745 28.8832 25.1178 29.1722C25.1144 29.1895 25.111 29.2069 25.1076 29.2244C25.1076 29.2242 25.1076 29.2245 25.1076 29.2244C25.1055 29.2352 25.1032 29.2466 25.1011 29.2576C25.0966 29.2809 25.0921 29.3043 25.0875 29.3278C25.0865 29.333 25.0855 29.3383 25.0845 29.3435C25.0843 29.3445 25.0842 29.3454 25.084 29.3464C25.0792 29.3711 25.0745 29.3959 25.0697 29.4209C25.0696 29.4219 25.0694 29.4229 25.0693 29.4239C25.0569 29.5064 25.0452 29.5876 25.0341 29.6674C25.0329 29.6761 25.0317 29.6848 25.0306 29.6935C25.0289 29.7054 25.0273 29.7174 25.0257 29.7293C25.0199 29.7716 25.0144 29.8135 25.0091 29.8551C25.0052 29.885 25.0014 29.9147 24.9978 29.9442C24.9976 29.9454 24.9975 29.9466 24.9973 29.9477C24.9909 29.9995 24.9848 30.0506 24.979 30.1012C24.9737 30.1476 24.9686 30.1935 24.9638 30.2389C24.9611 30.2639 24.9585 30.2888 24.956 30.3135C24.9541 30.3326 24.9522 30.3516 24.9503 30.3705C24.9464 30.4102 24.9427 30.4494 24.9393 30.4883C24.9351 30.5349 24.9312 30.5809 24.9276 30.6264C24.9265 30.6395 24.9255 30.6527 24.9245 30.6657C24.9203 30.7217 24.9164 30.7768 24.913 30.8309C24.9032 30.9791 24.9026 31.0993 24.9114 31.1914C24.9123 31.2007 24.9133 31.2096 24.9144 31.2183C24.9309 31.3518 24.9696 31.4185 25.0306 31.4185C25.0685 31.4185 25.1063 31.4179 25.1441 31.4168C25.1466 31.4168 25.1492 31.4167 25.1518 31.4166C25.2189 31.4146 25.2858 31.4108 25.3526 31.4053C25.3948 31.4018 25.4369 31.3976 25.479 31.3928C25.4881 31.3917 25.4971 31.3907 25.5062 31.3896C25.5351 31.386 25.564 31.3822 25.5928 31.378C25.6005 31.3769 25.6081 31.3757 25.6157 31.3746C25.6262 31.373 25.6366 31.3714 25.647 31.3697C25.6766 31.365 25.7061 31.3599 25.7356 31.3545C25.7757 31.3472 25.8157 31.3392 25.8556 31.3306C25.9081 31.3193 25.9605 31.3069 26.0128 31.2934C26.0413 31.2861 26.0698 31.2784 26.0983 31.2704C26.1603 31.2529 26.2222 31.2339 26.284 31.2133C26.3009 31.2077 26.3178 31.2019 26.3347 31.1961C26.357 31.1883 26.3792 31.1804 26.4015 31.1723C26.4178 31.1663 26.4341 31.1602 26.4504 31.154C26.4645 31.1486 26.4787 31.1432 26.4928 31.1376C26.5112 31.1304 26.5297 31.123 26.548 31.1155C26.6336 31.0807 26.7188 31.0427 26.8038 31.0018C26.8263 30.991 26.8489 30.9799 26.8714 30.9686C26.8755 30.9665 26.8797 30.9644 26.8838 30.9623C26.8886 30.9599 26.8934 30.9575 26.8982 30.955C26.9129 30.9475 26.9276 30.94 26.9422 30.9323C27.0021 30.901 27.0618 30.8682 27.1213 30.8339C27.2081 30.7839 27.2946 30.7307 27.3807 30.6743C27.5282 30.5726 27.6781 30.458 27.8305 30.3306C27.868 30.2992 27.9056 30.2671 27.9433 30.2343C28.0085 30.1775 28.0741 30.1184 28.1402 30.057C28.1463 30.0514 28.1524 30.0458 28.1586 30.0403C28.1683 30.0316 28.1782 30.0231 28.1882 30.0148C28.1915 30.012 28.1949 30.0092 28.1983 30.0065C28.2421 29.9708 28.2878 29.9389 28.3349 29.9106C28.3781 29.8848 28.4224 29.8619 28.4678 29.8421C28.6336 29.7694 28.8118 29.7365 28.9874 29.7397C29.0004 29.6349 29.0141 29.5305 29.0285 29.4262C29.0376 29.3601 29.0471 29.2941 29.0568 29.2282C29.067 29.1594 29.0775 29.0907 29.0883 29.0222C29.0885 29.021 29.0887 29.0198 29.0889 29.0186C29.0998 28.9497 29.111 28.881 29.1226 28.8123C29.1318 28.7576 29.1412 28.7029 29.1509 28.6483C29.2055 28.3389 29.2668 28.032 29.3349 27.7275C29.3934 27.466 29.4569 27.2063 29.5253 26.9484C29.543 26.8818 29.561 26.8153 29.5794 26.7489C29.5998 26.6749 29.6206 26.6012 29.6419 26.5275C29.6642 26.4504 29.6869 26.3734 29.7101 26.2965C29.7208 26.2611 29.7316 26.2256 29.7424 26.1902C29.7472 26.1747 29.752 26.1592 29.7568 26.1437C29.7642 26.1201 29.7715 26.0965 29.7789 26.073C29.8017 26.0007 29.8248 25.9285 29.8483 25.8565C29.8916 25.7217 29.934 25.5861 29.9755 25.4498C29.9859 25.4157 29.9962 25.3815 30.0065 25.3473C30.0304 25.2678 30.054 25.188 30.0773 25.1079C30.094 25.0507 30.1105 24.9933 30.1269 24.9358C30.1347 24.9084 30.1425 24.881 30.1502 24.8535C30.257 24.4745 30.3572 24.0899 30.451 23.6997C30.4727 23.6094 30.494 23.5189 30.515 23.428C30.525 23.3849 30.5348 23.3418 30.5446 23.2986C30.5449 23.2974 30.5452 23.2963 30.5454 23.2951C30.5558 23.2492 30.5661 23.2032 30.5764 23.1572C30.582 23.132 30.5875 23.1067 30.5931 23.0815C30.6786 22.6922 30.7578 22.2975 30.8307 21.8974C30.8478 21.8036 30.8645 21.7094 30.8809 21.615C30.8894 21.5666 30.8977 21.5181 30.9059 21.4695C31.0626 21.104 31.1801 20.8951 31.2584 20.8428C31.3368 20.7645 31.5065 20.7253 31.7676 20.7253C31.9416 20.7253 32.1347 20.7589 32.347 20.8259C32.4853 20.8696 32.6316 20.9274 32.786 20.9995C33.1777 21.1562 33.465 21.3781 33.6477 21.6654C33.6971 21.7592 33.7414 21.8564 33.7805 21.9568C33.8801 22.2122 33.9463 22.4889 33.9793 22.7867C34.0019 22.9905 34.0089 23.2043 34.0003 23.428C34.0003 23.4797 33.9992 23.5308 33.9971 23.5815C33.9814 23.9546 33.9082 24.3012 33.7773 24.6211C33.7013 24.8068 33.6059 24.9836 33.4911 25.1514C33.4449 25.216 33.3996 25.2871 33.3552 25.3647C33.2251 25.5916 33.102 25.8742 32.9858 26.2124C32.9235 26.3939 32.8632 26.5913 32.8049 26.8048C32.8034 26.8104 32.8019 26.816 32.8004 26.8216C32.7956 26.8392 32.7908 26.857 32.786 26.8749C32.6032 27.6321 32.4204 28.5853 32.2377 29.7342C32.1989 29.9047 32.159 30.0844 32.118 30.2732C32.1073 30.3225 32.0965 30.3724 32.0856 30.423C32.0803 30.4477 32.0749 30.4726 32.0696 30.4977C31.996 30.8415 31.9189 31.2137 31.8383 31.6142C31.8278 31.666 31.8173 31.7183 31.8068 31.771C31.7506 32.0967 31.6921 32.4393 31.6311 32.7987C31.6299 32.8057 31.6287 32.8126 31.6276 32.8195C31.5818 33.0896 31.5346 33.3691 31.4861 33.6582C31.4786 33.7027 31.4711 33.7474 31.4636 33.7923C31.4635 33.7928 31.4634 33.7934 31.4633 33.7939C31.4426 33.9176 31.4216 34.043 31.4004 34.1701C31.3923 34.2188 31.3841 34.2678 31.3759 34.317C31.322 34.4518 31.2577 34.6249 31.1829 34.8362C31.1816 34.8397 31.1804 34.8432 31.1791 34.8467C31.151 34.9263 31.1214 35.0113 31.0904 35.1016C31.0815 35.1273 31.0726 35.1535 31.0635 35.1801C31.0358 35.2611 31.007 35.3461 30.9772 35.4352C30.9666 35.4667 30.9559 35.4987 30.9451 35.5312C30.9357 35.558 30.9265 35.5845 30.9175 35.6107C30.9166 35.6133 30.9157 35.6159 30.9148 35.6185C30.9063 35.6432 30.898 35.6677 30.8898 35.6919C30.7676 36.0534 30.6795 36.3604 30.6255 36.6128C30.6151 36.6615 30.6059 36.7081 30.598 36.7527C30.5961 36.7635 30.5943 36.7741 30.5926 36.7846C30.5664 36.8891 30.4881 37.098 30.3575 37.4113C30.3486 37.4328 30.3397 37.4542 30.3307 37.4755C30.3235 37.4927 30.3164 37.5098 30.3092 37.5268C30.2627 37.6372 30.2163 37.7458 30.1698 37.8529C30.1474 37.9045 30.125 37.9557 30.1026 38.0066C30.057 38.1101 30.0114 38.2119 29.9659 38.3122C29.8353 38.6256 29.7439 38.8345 29.6917 38.9389C29.5685 39.1878 29.4435 39.4298 29.3166 39.6651C29.3055 39.6855 29.2945 39.7059 29.2835 39.7262C29.0216 40.2079 28.7517 40.6607 28.4738 41.0847C28.4543 41.1145 28.4348 41.1441 28.4152 41.1736C27.732 42.202 27.0008 43.0576 26.2216 43.7404C26.1982 43.7609 26.1748 43.7812 26.1514 43.8013C25.8877 44.0281 25.6185 44.2352 25.3439 44.4226C24.773 44.8185 24.207 45.1511 23.6459 45.4204C23.5185 45.4816 23.3913 45.5395 23.2644 45.5941C23.2 45.6218 23.1356 45.6487 23.0713 45.6748C23.0213 45.695 22.9713 45.7148 22.9214 45.734C22.8507 45.7613 22.7801 45.7875 22.7096 45.8127C22.6946 45.818 22.6796 45.8233 22.6646 45.8286C22.4683 45.8976 22.2726 45.9586 22.0775 46.0118C21.6735 46.1218 21.2721 46.198 20.8733 46.2402C20.7835 46.2497 20.6939 46.2575 20.6045 46.2635C20.4471 46.2921 20.3035 46.3139 20.1736 46.3288C19.8291 46.3683 19.5811 46.3596 19.4294 46.3027C19.3813 46.2847 19.3291 46.2639 19.2727 46.2403C19.1783 46.2009 19.0722 46.1536 18.9544 46.0986C18.875 46.0615 18.7902 46.0209 18.7001 45.9767C18.6572 45.9556 18.613 45.9337 18.5677 45.911C18.3362 45.7427 18.1556 45.6083 18.0259 45.5078C17.9946 45.4835 17.9663 45.4613 17.941 45.441C17.8104 45.3365 17.719 45.2321 17.6668 45.1276C17.4056 44.5793 17.3665 44.1745 17.5493 43.9134C17.7321 43.6523 17.9932 43.4825 18.3326 43.4042C18.6982 43.352 19.0116 43.3259 19.2727 43.3259C19.3466 43.3681 19.4398 43.4018 19.5522 43.427C19.6239 43.443 19.7034 43.4556 19.7908 43.4647C19.8845 43.4745 19.9871 43.4802 20.0987 43.482C20.1232 43.4823 20.1482 43.4825 20.1736 43.4825C20.2304 43.4825 20.2844 43.4817 20.3357 43.48C20.3631 43.4791 20.3897 43.4779 20.4155 43.4765C20.4415 43.4751 20.4667 43.4734 20.4911 43.4715C20.751 43.4512 20.9194 43.4026 20.9961 43.3259L21.3487 43.0909C21.5536 42.9884 21.8069 42.902 22.1084 42.8317C22.191 42.8124 22.2772 42.7943 22.3671 42.7775C22.8721 42.5331 23.311 42.2837 23.6839 42.0292C23.6899 42.0251 23.6959 42.021 23.7019 42.0169C23.9195 41.8674 24.1143 41.7162 24.2863 41.5633C24.6856 41.2305 25.1226 40.6905 25.5972 39.9432C25.6813 39.8108 25.7666 39.6719 25.8531 39.5265C25.8698 39.5005 25.8865 39.4743 25.9033 39.4477C26.0267 39.2525 26.1535 39.0396 26.284 38.809C26.3228 38.7403 26.362 38.6701 26.4015 38.5982C26.4659 38.481 26.5312 38.3595 26.5973 38.2339C26.6966 38.0552 26.7845 37.8765 26.8612 37.6978C26.8801 37.6537 26.8983 37.6095 26.9159 37.5654C26.9175 37.5614 26.9191 37.5574 26.9206 37.5534C26.9373 37.5111 26.9534 37.4688 26.9688 37.4264C27.0077 37.3199 27.0425 37.2135 27.0733 37.107C27.0827 37.0746 27.0917 37.0421 27.1003 37.0097C27.1168 36.9477 27.1319 36.8858 27.1457 36.8238C27.148 36.8179 27.1504 36.8119 27.1528 36.806C27.1759 36.7479 27.1993 36.6877 27.223 36.6252C27.268 36.5068 27.3141 36.3804 27.3614 36.2461C27.3698 36.2222 27.3782 36.198 27.3867 36.1735C27.3958 36.1474 27.4049 36.121 27.4141 36.0943C27.4249 36.0627 27.4358 36.0306 27.4468 35.9982C27.5081 35.8167 27.5713 35.6225 27.6362 35.4156C27.6442 35.3902 27.6522 35.3645 27.6603 35.3387C27.7221 35.1401 27.7856 34.9301 27.8507 34.7087C27.8644 34.6663 27.878 34.624 27.8916 34.5817C27.8981 34.5611 27.9047 34.5405 27.9113 34.52C27.9161 34.5048 27.9209 34.4896 27.9257 34.4744C27.9382 34.435 27.9506 34.3956 27.9629 34.3562C28.0054 34.2206 28.0469 34.0854 28.0875 33.9504C28.1048 33.8927 28.122 33.8351 28.139 33.7775C28.2061 33.5507 28.2705 33.3247 28.3324 33.0996C28.3369 33.0829 28.3415 33.0663 28.346 33.0497C28.3465 33.0479 28.347 33.0462 28.3475 33.0444C28.3532 33.0233 28.359 33.0022 28.3647 32.9811C28.35 32.9954 28.3353 33.0098 28.3207 33.0244C28.3084 33.0409 28.2934 33.0584 28.2757 33.0769C28.182 33.1753 28.0142 33.3014 27.7724 33.4553C27.6616 33.5258 27.5508 33.5944 27.4399 33.661C27.2635 33.7671 27.0871 33.8682 26.9107 33.9645C26.8633 33.9882 26.8189 34.0097 26.7775 34.0291C26.759 34.0378 26.7411 34.046 26.7239 34.0538C26.6911 34.0686 26.6605 34.0819 26.6321 34.0936C26.5241 34.1381 26.4472 34.1603 26.4015 34.1603L26.284 34.1995C26.2818 34.1995 26.2797 34.1996 26.2776 34.1997C26.257 34.2015 26.2408 34.2122 26.229 34.2317C26.2134 34.2576 26.2056 34.2991 26.2056 34.3562C26.2056 34.3879 26.1428 34.4391 26.017 34.5095C25.9362 34.5549 25.8293 34.6082 25.6964 34.6695C25.4798 34.7528 25.2578 34.8308 25.0306 34.9035C24.9017 34.9447 24.7711 34.9842 24.6389 35.022C24.2733 35.1265 24.0252 35.1787 23.8946 35.1787C23.6074 35.1787 23.3071 35.022 22.9938 34.7087C22.8877 34.593 22.7942 34.4862 22.713 34.3883C22.704 34.3775 22.6952 34.3668 22.6865 34.3562C22.5613 34.2029 22.4678 34.0723 22.4062 33.9645C22.3412 33.8018 22.2407 33.6443 22.1047 33.4918M19.5412 38.3259C19.5126 38.2982 19.4849 38.2709 19.4582 38.2442L19.3814 38.1674L19.308 38.0873C19.0981 37.8584 18.822 37.5467 18.5487 37.179C18.3619 37.3254 18.172 37.469 17.9794 37.6097L17.9278 37.6474L17.8753 37.6837C17.0968 38.2228 16.3094 38.7234 15.513 39.1836C16.0533 38.882 16.6267 38.6665 17.2084 38.5323L17.4153 38.4845L17.6255 38.4545C18.1377 38.3813 18.7004 38.3259 19.2727 38.3259H19.5412ZM19.7231 41.4163L19.6827 41.3557ZM12.1598 23.7914C12.156 23.7941 12.1522 23.7968 12.1484 23.7995C12.1298 23.8127 12.1112 23.8258 12.0928 23.839C12.0517 23.8683 12.011 23.8977 11.9707 23.927M13.9385 22.8534C14.0155 22.8217 14.0919 22.7912 14.1676 22.7621C14.507 22.6316 14.7551 22.5532 14.9118 22.5271C14.9901 22.501 15.2512 22.4488 15.6952 22.3704C15.7466 22.359 15.7979 22.3482 15.8491 22.338C15.8631 22.3352 15.877 22.3325 15.891 22.3298C15.9431 22.3197 15.9951 22.3103 16.0469 22.3016C16.0723 22.2973 16.0977 22.2932 16.123 22.2892M13.9385 22.8534C13.6702 22.9639 13.3941 23.0901 13.11 23.2321ZM12.2875 23.7022C12.2445 23.7319 12.2019 23.7617 12.1598 23.7914ZM12.2875 23.7022C12.3377 23.6645 12.3917 23.6268 12.4495 23.5891C12.4598 23.5824 12.4702 23.5757 12.4808 23.569C12.657 23.4567 12.8667 23.3444 13.11 23.2321M16.6542 13.1067C16.6546 13.1058 16.6551 13.1049 16.6555 13.1041ZM16.6555 13.1041C16.6563 13.1027 16.6567 13.102 16.6567 13.1021C16.6567 13.1022 16.6558 13.1037 16.6542 13.1067" fill="white"/>
<rect x="5.15869" y="21.7598" width="26.9116" height="17.0459" fill="white"/>
<rect x="55.1587" y="21.7598" width="140.839" height="12.7842" fill="white"/>
<path d="M70.2615 31.9966C71.39 31.9966 72.3048 32.9114 72.3048 34.0399V40.2518C72.3048 40.5938 72.1339 40.7648 71.7922 40.7648H66.7134C63.11 40.7648 60.3609 39.8787 58.466 38.1064C56.5711 36.3341 55.6237 33.6445 55.6237 30.0377V26.0178C55.6237 24.8894 54.7089 23.9746 53.5804 23.9746H52.5018C52.1601 23.9746 51.9893 23.8036 51.9893 23.4616V17.0702C51.9893 16.0666 52.8029 15.253 53.8065 15.253C54.8101 15.253 55.6237 14.4394 55.6237 13.4358V10.1604C55.6237 9.03193 56.5385 8.11714 57.667 8.11714H64.4302C64.7719 8.11714 64.9427 8.28815 64.9427 8.63017V13.2097C64.9427 14.3382 65.8575 15.253 66.986 15.253H71.7922C72.1339 15.253 72.3048 15.424 72.3048 15.766V21.9313C72.3048 23.0598 71.39 23.9746 70.2615 23.9746H66.986C65.8575 23.9746 64.9427 24.8894 64.9427 26.0178V29.3381C64.9427 30.302 65.1757 31.0016 65.6417 31.4369C66.0144 31.81 66.7289 31.9966 67.7851 31.9966H70.2615Z" fill="black"/>
<path d="M88.8927 40.2518C88.8927 40.5938 88.7218 40.7648 88.3801 40.7648H83.1149C81.1268 40.7648 79.496 40.2052 78.2224 39.0858C76.9488 37.9665 76.312 36.2874 76.312 34.0487V7.82841C76.312 6.69995 77.2268 5.78516 78.3552 5.78516H85.3981C85.7398 5.78516 85.9106 5.95617 85.9106 6.29819V31.2504C85.9106 31.4991 85.9727 31.6857 86.097 31.81C86.2523 31.9655 86.4697 32.0432 86.7493 32.0432H86.8494C87.9779 32.0432 88.8927 32.958 88.8927 34.0865V40.2518Z" fill="black"/>
<path d="M99.5914 14.7866C101.02 14.7866 102.247 15.1442 103.272 15.8593C104.238 16.5129 105.034 17.3614 105.662 18.4047C105.772 18.5875 105.968 18.7043 106.181 18.7043C106.505 18.7043 106.767 18.4419 106.767 18.1183V7.82841C106.767 6.69995 107.682 5.78516 108.81 5.78516H115.574C115.915 5.78516 116.086 5.95617 116.086 6.29819V38.7216C116.086 39.85 115.171 40.7648 114.043 40.7648H107.28C106.938 40.7648 106.767 40.5938 106.767 40.2518V37.4498C106.767 37.1169 106.497 36.8471 106.164 36.8471C105.959 36.8471 105.769 36.952 105.654 37.1223C104.861 38.3023 103.974 39.2677 102.993 40.0186C101.937 40.827 100.616 41.2312 99.0323 41.2312C96.8889 41.2312 95.1959 40.5005 93.9534 39.0392C92.7108 37.5778 92.0896 35.6189 92.0896 33.1626V23.3683C92.0896 20.6943 92.7264 18.5955 94 17.0719C95.3046 15.5484 97.1684 14.7866 99.5914 14.7866ZM101.921 32.3697C102.263 32.7428 102.869 32.9294 103.738 32.9294C104.415 32.9294 105.028 32.8664 105.579 32.7403C106.333 32.5677 106.767 31.8345 106.767 31.0608V24.6011C106.767 23.9183 106.437 23.2477 105.796 23.0116C105.626 22.949 105.453 22.8969 105.276 22.8552C104.748 22.6998 104.235 22.622 103.738 22.622C102.154 22.622 101.362 23.4149 101.362 25.0007V30.5974C101.362 31.4369 101.548 32.0277 101.921 32.3697Z" fill="black"/>
<path d="M130.817 38.7216C130.817 39.85 129.902 40.7648 128.773 40.7648H121.87C121.529 40.7648 121.358 40.5938 121.358 40.2518V17.2962C121.358 16.1678 122.273 15.253 123.401 15.253H130.304C130.646 15.253 130.817 15.424 130.817 15.766V19.5074C130.817 19.8109 131.063 20.0569 131.366 20.0569C131.618 20.0569 131.837 19.8846 131.905 19.6418C132.335 18.1067 132.935 16.9391 133.706 16.1391C134.575 15.2374 135.74 14.7866 137.2 14.7866C137.697 14.7866 138.07 14.8332 138.319 14.9265C138.567 15.0198 138.738 15.1131 138.831 15.2063C138.986 15.3618 139.064 15.5484 139.064 15.766V24.2794C139.064 24.7293 138.699 25.0939 138.25 25.0939C138.172 25.0939 138.094 25.0826 138.019 25.0613C137.527 24.921 137.021 24.8075 136.501 24.7208C135.973 24.6275 135.414 24.5809 134.824 24.5809C134.016 24.5809 133.286 24.6897 132.634 24.9074C132.36 24.9857 132.095 25.0776 131.837 25.1833C131.179 25.4535 130.817 26.1341 130.817 26.8456V38.7216Z" fill="black"/>
<path d="M163.709 24.3477V31.9033C163.709 32.2506 163.818 32.489 164.036 32.6186C164.151 32.6875 164.28 32.7347 164.411 32.7669C164.472 32.7819 164.533 32.7895 164.595 32.7895C165.315 32.7895 165.899 33.3736 165.899 34.0941V40.2518C165.899 40.5938 165.728 40.7648 165.387 40.7648H162.265C160.743 40.7648 159.345 40.4539 158.071 39.832C156.966 39.2787 156.118 38.4791 155.529 37.4332C155.394 37.1938 155.147 37.0337 154.872 37.0337C154.605 37.0337 154.362 37.1847 154.23 37.4166C153.569 38.5711 152.706 39.4851 151.641 40.1585C150.492 40.8737 149.016 41.2312 147.215 41.2312C145.04 41.2312 143.316 40.6405 142.043 39.4589C140.769 38.2774 140.132 36.6761 140.132 34.655V32.8361C140.132 30.6596 140.769 28.9495 142.043 27.7058C143.347 26.462 145.18 25.8402 147.541 25.8402H154.064C154.424 25.8402 154.716 25.5478 154.716 25.1872C154.716 24.099 154.421 23.3683 153.831 22.9952C153.272 22.5909 152.185 22.3888 150.569 22.3888C147.875 22.3888 145.211 22.7815 142.577 23.5669C142.501 23.5897 142.421 23.6015 142.342 23.6015C141.893 23.6015 141.53 23.238 141.53 22.7897V16.7921C141.53 16.5744 141.577 16.419 141.67 16.3257C141.887 16.108 142.477 15.8749 143.44 15.6261C144.434 15.3774 145.63 15.1597 147.028 14.9732C148.457 14.7555 149.917 14.6467 151.408 14.6467C155.664 14.6467 158.77 15.424 160.727 16.9787C162.715 18.5022 163.709 20.9586 163.709 24.3477ZM148.845 33.0227C148.845 34.0176 149.342 34.5151 150.337 34.5151C151.571 34.5151 152.731 34.2601 153.814 33.7501C154.394 33.4774 154.716 32.8672 154.716 32.2267C154.716 31.1981 153.883 30.3642 152.854 30.3642H150.43C149.902 30.3642 149.498 30.5041 149.218 30.784C148.97 31.0949 148.845 31.468 148.845 31.9033V33.0227Z" fill="black"/>
<path d="M181.14 16.8417C181.351 15.9122 182.177 15.253 183.131 15.253H187.699C187.978 15.253 188.165 15.424 188.258 15.766C188.972 18.8131 189.625 21.7048 190.215 24.441C190.796 27.0006 191.228 29.4922 191.51 31.9158C191.543 32.2004 191.783 32.4164 192.07 32.4164C192.382 32.4164 192.634 32.161 192.633 31.8485C192.621 29.4129 192.716 26.8971 192.917 24.3011C193.117 22.0215 193.338 19.6209 193.578 17.0992C193.678 16.0519 194.559 15.253 195.611 15.253H202.05C202.361 15.253 202.5 15.4551 202.469 15.8593C201.786 19.9636 201.087 24.099 200.373 28.2654C199.755 31.8659 199.138 35.4664 198.52 39.0669C198.352 40.0478 197.502 40.7648 196.506 40.7648H188.724C188.564 40.7648 188.412 40.7228 188.269 40.6389C188.163 40.5763 188.075 40.4854 188.013 40.3789C187.892 40.1747 187.772 39.8681 187.652 39.4589C187.404 38.4018 187.186 37.469 187 36.6606C186.813 35.821 186.627 34.9971 186.441 34.1887C186.285 33.3491 186.114 32.3853 185.928 31.297C185.789 30.2921 185.624 29.0868 185.435 27.681C185.397 27.4015 185.158 27.1927 184.876 27.1927C184.597 27.1927 184.36 27.3974 184.319 27.6734C184.097 29.1435 183.888 30.398 183.691 31.4369C183.505 32.5563 183.319 33.5823 183.132 34.5151C182.946 35.4479 182.728 36.3963 182.48 37.3601C182.334 37.9271 182.171 38.5532 181.993 39.2385C181.759 40.1378 180.946 40.7648 180.017 40.7648H172.322C172.162 40.7648 172.011 40.7228 171.868 40.6389C171.761 40.5763 171.673 40.4856 171.614 40.3772C171.499 40.1675 171.393 39.8459 171.297 39.4123C170.614 35.6189 169.93 31.6701 169.247 27.5658C168.721 24.2596 168.176 20.9534 167.61 17.6473C167.396 16.3969 168.358 15.253 169.626 15.253H175.351C175.537 15.253 175.677 15.2996 175.77 15.3929C175.863 15.4862 175.926 15.7038 175.957 16.0459C176.298 19.2174 176.578 22.0935 176.795 24.6742C177.025 27.0643 177.122 29.4544 177.086 31.8445C177.081 32.1581 177.333 32.4164 177.647 32.4164C177.931 32.4164 178.17 32.2024 178.203 31.9199C178.484 29.5471 178.9 27.0386 179.451 24.3943C179.971 22.0289 180.533 19.5114 181.14 16.8417Z" fill="black"/>
<path d="M9.50645 35.9621C8.9842 35.9099 8.5664 35.7793 8.25305 35.5704C7.96581 35.3354 7.74385 35.0481 7.58717 34.7087C7.37827 34.4737 7.24771 34.2909 7.19548 34.1603C7.16937 34.0297 7.16937 33.9122 7.19548 33.8078C7.32604 33.8078 7.44355 33.8078 7.548 33.8078C7.65245 33.7817 7.71774 33.7294 7.74385 33.6511C7.74385 33.5728 7.78302 33.5206 7.86135 33.4944C7.96581 33.4683 8.07026 33.4683 8.17471 33.4944C8.67085 33.5206 9.27144 33.3508 9.97648 32.9852C10.7076 32.6197 11.5041 32.1105 12.3658 31.4576C13.2275 30.7787 14.0892 30.0476 14.951 29.2642C15.6299 28.3764 16.0999 27.7235 16.361 27.3057C16.6483 26.8879 16.7919 26.5746 16.7919 26.3657C16.818 26.1307 16.7658 25.8956 16.6352 25.6606C16.5308 25.4517 16.2827 25.3473 15.891 25.3473C15.4993 25.3473 14.8987 25.6084 14.0892 26.1307C12.9664 26.8357 12.0655 27.4885 11.3866 28.0891C10.7076 28.6897 10.0809 29.3686 9.50645 30.1259C9.29755 30.387 9.06254 30.6743 8.80141 30.9876C8.5664 31.2749 8.3575 31.5229 8.17471 31.7318C8.01803 31.9407 7.93969 32.0452 7.93969 32.0452C7.93969 32.1496 7.78302 32.2802 7.46966 32.4369C7.18242 32.5936 6.93435 32.6719 6.72545 32.6719C6.621 32.6197 6.47738 32.5283 6.29459 32.3977C6.13792 32.241 6.03347 32.0452 5.98124 31.8102C5.74623 31.6274 5.55038 31.4707 5.39371 31.3401C5.23703 31.1835 5.15869 30.9354 5.15869 30.5959C5.15869 30.387 5.1848 30.1259 5.23703 29.8125C5.31537 29.4992 5.41982 29.0944 5.55038 28.5983C5.70706 27.9194 5.87679 27.2143 6.05958 26.4832C6.24237 25.7259 6.4121 25.0862 6.56878 24.5639C6.75157 24.0155 6.88213 23.7152 6.96047 23.663C6.96047 23.663 7.01269 23.5455 7.11714 23.3105C7.22159 23.0755 7.27382 22.8013 7.27382 22.4879C7.32604 22.1746 7.40438 21.9004 7.50883 21.6654C7.7617 21.2102 7.98783 20.7067 8.17471 20.2161C8.38361 19.6678 8.64474 18.9497 8.95809 18.0618C8.95809 17.9835 9.04948 17.7354 9.23227 17.3176C9.41506 16.8737 9.63702 16.3645 9.89814 15.79C10.1593 15.1894 10.4204 14.5758 10.6815 13.9491C10.9688 13.2963 11.2038 12.7218 11.3866 12.2256C11.6999 11.7817 11.961 11.3378 12.1699 10.8939C12.405 10.4239 12.6139 10.1497 12.7967 10.0714C12.9272 10.0452 13.1492 10.0975 13.4625 10.228C13.802 10.3586 14.1415 10.5283 14.4809 10.7372C14.8204 10.9461 15.0554 11.155 15.186 11.3639C15.2643 11.4945 15.3035 11.6251 15.3035 11.7556C15.3296 11.8862 15.2774 12.1081 15.1468 12.4215C15.0162 12.7087 14.7943 13.1918 14.4809 13.8707C14.1676 14.5236 13.7237 15.4506 13.1492 16.6518C12.418 18.2185 11.8435 19.5241 11.4257 20.5687C11.034 21.6132 10.7076 22.5141 10.4465 23.2713C10.2115 24.0286 9.96343 24.7467 9.7023 25.4256C9.64991 25.6561 9.93855 25.8054 10.0964 25.6294L10.5248 25.1514C10.786 24.8903 11.0602 24.6422 11.3474 24.4072C11.6346 24.1722 11.948 23.9372 12.2875 23.7022C12.4964 23.5455 12.7705 23.3888 13.11 23.2321C13.4756 23.0494 13.8281 22.8927 14.1676 22.7621C14.507 22.6316 14.7551 22.5532 14.9118 22.5271C14.9901 22.501 15.2512 22.4488 15.6952 22.3704C16.1652 22.266 16.6222 22.2138 17.0661 22.2138C17.6406 22.2138 18.1367 22.4227 18.5545 22.8405C18.9984 23.2322 19.3901 23.7152 19.7296 24.2897C20.0168 24.8381 20.1213 25.5431 20.0429 26.4048C19.9646 27.2404 19.7426 27.9585 19.3771 28.5591C19.2465 28.6636 19.1159 28.8072 18.9854 28.99C18.8548 29.1467 18.7895 29.2772 18.7895 29.3817C18.7634 29.5645 18.5284 29.9431 18.0845 30.5176C17.6406 31.066 17.1966 31.5882 16.7527 32.0844C16.2827 32.5805 15.7082 33.0766 15.0293 33.5728C14.3504 34.0428 13.6714 34.4737 12.9925 34.8654C12.3397 35.2309 11.7783 35.4921 11.3082 35.6487C11.0993 35.6748 10.799 35.7271 10.4073 35.8054C10.0157 35.8576 9.71536 35.9099 9.50645 35.9621Z" fill="black"/>
<path d="M20.6044 46.2635C20.03 46.368 19.6383 46.3811 19.4294 46.3027C19.2205 46.2244 18.9332 46.0938 18.5677 45.911C18.2804 45.7021 18.0715 45.5454 17.941 45.441C17.8104 45.3365 17.719 45.2321 17.6668 45.1276C17.4056 44.5793 17.3665 44.1745 17.5493 43.9134C17.7321 43.6523 17.9932 43.4825 18.3326 43.4042C18.6982 43.352 19.0116 43.3259 19.2727 43.3259C19.4555 43.4303 19.7558 43.4825 20.1736 43.4825C20.6175 43.4825 20.8917 43.4303 20.9961 43.3259C20.9961 43.3259 21.1136 43.2475 21.3487 43.0909C21.6098 42.9603 21.9493 42.8558 22.3671 42.7775C23.1765 42.3858 23.8163 41.9811 24.2863 41.5633C24.7564 41.1716 25.2786 40.4926 25.8531 39.5265C26.0881 39.1609 26.3362 38.73 26.5973 38.2339C26.8584 37.7639 27.0412 37.2938 27.1457 36.8238C27.3546 36.3016 27.5896 35.5965 27.8507 34.7087C28.138 33.8209 28.386 32.9461 28.5949 32.0844C28.8038 31.1965 28.9213 30.5306 28.9475 30.0867C29.1041 28.6244 29.4044 27.2143 29.8483 25.8565C30.2923 24.4725 30.6448 23.0102 30.9059 21.4695C31.0626 21.104 31.1801 20.8951 31.2584 20.8428C31.3368 20.7645 31.5065 20.7253 31.7676 20.7253C32.0549 20.7253 32.3943 20.8167 32.786 20.9995C33.1777 21.1562 33.465 21.3781 33.6477 21.6654C33.9089 22.1615 34.0264 22.7491 34.0003 23.428C34.0003 24.0808 33.8305 24.6553 33.4911 25.1514C33.2299 25.517 32.9949 26.0915 32.786 26.8749C32.6032 27.6321 32.4204 28.5853 32.2377 29.7342C32.1071 30.3087 31.9635 30.9876 31.8068 31.771C31.6762 32.5283 31.5326 33.3769 31.3759 34.317C31.2715 34.5781 31.1279 34.9829 30.9451 35.5312C30.7623 36.0535 30.6448 36.4713 30.5926 36.7846C30.5664 36.8891 30.4881 37.098 30.3575 37.4113C30.227 37.7247 30.0964 38.025 29.9659 38.3122C29.8353 38.6256 29.7439 38.8345 29.6917 38.9389C28.4383 41.4719 26.989 43.2998 25.3439 44.4226C23.7249 45.5454 22.1451 46.1591 20.6044 46.2635ZM23.8946 35.1787C23.6074 35.1787 23.3071 35.022 22.9938 34.7087C22.7065 34.3953 22.5107 34.1473 22.4062 33.9645C22.3018 33.7033 22.1059 33.4553 21.8187 33.2203C21.5314 32.9852 21.2834 32.698 21.0745 32.3585C20.8656 32.0191 20.8134 31.6013 20.9178 31.1051C21.0223 30.7657 21.1789 30.2565 21.3878 29.5775C21.5967 28.8725 21.8448 28.1022 22.132 27.2666C22.4193 26.4048 22.7065 25.5562 22.9938 24.7206C23.3071 23.885 23.5944 23.1408 23.8555 22.4879C24.1166 21.8351 24.3386 21.3781 24.5214 21.117C24.678 20.9081 24.9261 20.7514 25.2656 20.647C25.605 20.5425 25.9445 20.5164 26.284 20.5687C26.6234 20.6209 26.8715 20.7776 27.0282 21.0387C27.3154 21.4043 27.4721 21.7698 27.4982 22.1354C27.5504 22.4749 27.3676 23.0232 26.9498 23.7805C26.8454 24.0678 26.7148 24.3811 26.5581 24.7206C26.4015 25.0339 26.3231 25.2428 26.3231 25.3473C26.297 25.3995 26.2448 25.5823 26.1665 25.8956C26.1142 26.1829 26.0489 26.4571 25.9706 26.7182C25.8923 26.9793 25.8139 27.1099 25.7356 27.1099C25.6311 27.2143 25.5136 27.4885 25.3831 27.9324C25.2786 28.3764 25.1742 28.8725 25.0697 29.4209C24.9914 29.9431 24.9392 30.4131 24.913 30.8309C24.8869 31.2226 24.9261 31.4185 25.0306 31.4185C25.84 31.4185 26.6234 31.1704 27.3807 30.6743C27.627 30.5044 27.8801 30.2987 28.1402 30.057C28.8119 29.4329 30.0096 29.7738 30.097 30.6865L30.2009 31.771C29.8353 31.9538 29.4958 32.1496 29.1825 32.3585C28.8691 32.5413 28.5819 32.7633 28.3207 33.0244C28.2424 33.1289 28.0596 33.2725 27.7724 33.4553C27.4851 33.6381 27.1979 33.8078 26.9107 33.9645C26.6495 34.095 26.4798 34.1603 26.4015 34.1603C26.4015 34.1603 26.3623 34.1734 26.284 34.1995C26.2317 34.1995 26.2056 34.2517 26.2056 34.3562C26.2056 34.4084 26.0359 34.5128 25.6964 34.6695C25.357 34.8001 25.0044 34.9176 24.6389 35.022C24.2733 35.1265 24.0252 35.1787 23.8946 35.1787Z" fill="black"/>
</svg>
