<svg width="205" height="48" viewBox="0 0 205 48" fill="none" xmlns="http://www.w3.org/2000/svg">
<mask id="path-1-outside-1_1207_106292" maskUnits="userSpaceOnUse" x="45.6396" y="0.669922" width="159" height="44" fill="black">
<rect fill="white" x="45.6396" y="0.669922" width="159" height="44"/>
<path d="M67.9119 30.8814C69.0404 30.8814 69.9552 31.7962 69.9552 32.9246V39.1366C69.9552 39.4786 69.7843 39.6496 69.4426 39.6496H64.3637C60.7604 39.6496 58.0113 38.7634 56.1164 36.9911C54.2215 35.2188 53.2741 32.5293 53.2741 28.9225V24.9026C53.2741 23.7742 52.3593 22.8594 51.2308 22.8594H50.1522C49.8105 22.8594 49.6396 22.6883 49.6396 22.3463V15.955C49.6396 14.9513 50.4532 14.1378 51.4569 14.1378C52.4605 14.1378 53.2741 13.3242 53.2741 12.3205V9.04516C53.2741 7.9167 54.1889 7.0019 55.3173 7.0019H62.0806C62.4223 7.0019 62.5931 7.17291 62.5931 7.51494V12.0945C62.5931 13.223 63.5079 14.1378 64.6364 14.1378H69.4426C69.7843 14.1378 69.9552 14.3088 69.9552 14.6508V20.8161C69.9552 21.9446 69.0404 22.8594 67.9119 22.8594H64.6364C63.5079 22.8594 62.5931 23.7742 62.5931 24.9026V28.2229C62.5931 29.1868 62.8261 29.8864 63.2921 30.3217C63.6648 30.6948 64.3793 30.8814 65.4354 30.8814H67.9119Z"/>
<path d="M86.5431 39.1366C86.5431 39.4786 86.3722 39.6496 86.0305 39.6496H80.7653C78.7772 39.6496 77.1464 39.0899 75.8728 37.9706C74.5992 36.8512 73.9624 35.1722 73.9624 32.9335V6.71318C73.9624 5.58472 74.8772 4.66992 76.0056 4.66992H83.0484C83.3901 4.66992 83.561 4.84093 83.561 5.18296V30.1351C83.561 30.3839 83.6231 30.5704 83.7474 30.6948C83.9027 30.8503 84.1201 30.928 84.3997 30.928H84.4998C85.6283 30.928 86.5431 31.8428 86.5431 32.9713V39.1366Z"/>
<path d="M97.2418 13.6714C98.6707 13.6714 99.8977 14.0289 100.923 14.7441C101.888 15.3977 102.685 16.2462 103.313 17.2894C103.423 17.4722 103.618 17.5891 103.831 17.5891C104.155 17.5891 104.417 17.3267 104.417 17.003V6.71318C104.417 5.58472 105.332 4.66992 106.461 4.66992H113.224C113.566 4.66992 113.736 4.84093 113.736 5.18296V37.6063C113.736 38.7348 112.822 39.6496 111.693 39.6496H104.93C104.588 39.6496 104.417 39.4786 104.417 39.1366V36.3346C104.417 36.0017 104.148 35.7319 103.815 35.7319C103.61 35.7319 103.419 35.8368 103.305 36.0071C102.511 37.1871 101.624 38.1525 100.643 38.9034C99.5871 39.7118 98.2669 40.116 96.6826 40.116C94.5392 40.116 92.8463 39.3853 91.6037 37.9239C90.3612 36.4626 89.7399 34.5037 89.7399 32.0473V22.253C89.7399 19.579 90.3767 17.4803 91.6503 15.9567C92.955 14.4331 94.8188 13.6714 97.2418 13.6714ZM99.5715 31.2545C99.9132 31.6276 100.519 31.8141 101.389 31.8141C102.065 31.8141 102.679 31.7511 103.229 31.6251C103.983 31.4525 104.417 30.7192 104.417 29.9456V23.4859C104.417 22.803 104.087 22.1324 103.447 21.8964C103.277 21.8338 103.103 21.7817 102.926 21.74C102.398 21.5845 101.886 21.5068 101.389 21.5068C99.8045 21.5068 99.0124 22.2997 99.0124 23.8854V29.4822C99.0124 30.3217 99.1988 30.9125 99.5715 31.2545Z"/>
<path d="M128.467 37.6063C128.467 38.7348 127.552 39.6496 126.424 39.6496H119.521C119.179 39.6496 119.008 39.4786 119.008 39.1366V16.181C119.008 15.0526 119.923 14.1378 121.052 14.1378H127.955C128.296 14.1378 128.467 14.3088 128.467 14.6508V18.3922C128.467 18.6956 128.713 18.9416 129.017 18.9416C129.269 18.9416 129.487 18.7694 129.555 18.5266C129.985 16.9915 130.585 15.8239 131.356 15.0239C132.226 14.1222 133.391 13.6714 134.851 13.6714C135.348 13.6714 135.72 13.718 135.969 13.8113C136.217 13.9046 136.388 13.9978 136.482 14.0911C136.637 14.2466 136.714 14.4331 136.714 14.6508V23.1642C136.714 23.614 136.35 23.9787 135.9 23.9787C135.822 23.9787 135.745 23.9674 135.67 23.946C135.177 23.8057 134.671 23.6922 134.152 23.6056C133.624 23.5123 133.065 23.4657 132.474 23.4657C131.667 23.4657 130.937 23.5745 130.284 23.7921C130.011 23.8704 129.745 23.9624 129.488 24.068C128.83 24.3383 128.467 25.0189 128.467 25.7304V37.6063Z"/>
<path d="M161.36 23.2325V30.7881C161.36 31.1353 161.468 31.3737 161.686 31.5033C161.802 31.5723 161.931 31.6194 162.062 31.6516C162.123 31.6667 162.184 31.6742 162.245 31.6742C162.966 31.6742 163.55 32.2584 163.55 32.9789V39.1366C163.55 39.4786 163.379 39.6496 163.037 39.6496H159.915C158.393 39.6496 156.995 39.3387 155.722 38.7168C154.616 38.1634 153.769 37.3638 153.179 36.318C153.045 36.0786 152.797 35.9184 152.523 35.9184C152.255 35.9184 152.013 36.0694 151.88 36.3014C151.22 37.4559 150.357 38.3699 149.292 39.0433C148.142 39.7584 146.667 40.116 144.865 40.116C142.691 40.116 140.967 39.5252 139.693 38.3437C138.419 37.1622 137.783 35.5609 137.783 33.5398V31.7209C137.783 29.5444 138.419 27.8342 139.693 26.5905C140.998 25.3468 142.83 24.7249 145.191 24.7249H151.714C152.075 24.7249 152.367 24.4326 152.367 24.072C152.367 22.9837 152.072 22.253 151.482 21.8799C150.922 21.4757 149.835 21.2736 148.22 21.2736C145.526 21.2736 142.861 21.6663 140.227 22.4517C140.151 22.4744 140.072 22.4862 139.992 22.4862C139.544 22.4862 139.18 22.1228 139.18 21.6745V15.6769C139.18 15.4592 139.227 15.3037 139.32 15.2105C139.538 14.9928 140.128 14.7596 141.091 14.5109C142.085 14.2621 143.281 14.0445 144.679 13.8579C146.108 13.6403 147.568 13.5314 149.059 13.5314C153.314 13.5314 156.421 14.3088 158.378 15.8634C160.366 17.387 161.36 19.8433 161.36 23.2325ZM146.496 31.9074C146.496 32.9024 146.993 33.3999 147.987 33.3999C149.222 33.3999 150.381 33.1449 151.465 32.6349C152.044 32.3622 152.367 31.7519 152.367 31.1114C152.367 30.0828 151.533 29.249 150.504 29.249H148.08C147.552 29.249 147.148 29.3889 146.869 29.6687C146.62 29.9797 146.496 30.3528 146.496 30.7881V31.9074Z"/>
<path d="M178.79 15.7265C179.001 14.7969 179.828 14.1378 180.781 14.1378H185.349C185.629 14.1378 185.815 14.3088 185.908 14.6508C186.623 17.6979 187.275 20.5896 187.865 23.3258C188.446 25.8854 188.878 28.377 189.16 30.8006C189.193 31.0852 189.434 31.3011 189.72 31.3011C190.033 31.3011 190.285 31.0458 190.283 30.7332C190.271 28.2977 190.366 25.7819 190.568 23.1858C190.768 20.9063 190.988 18.5057 191.229 15.984C191.329 14.9367 192.209 14.1378 193.261 14.1378H199.7C200.011 14.1378 200.151 14.3399 200.12 14.7441C199.436 18.8484 198.737 22.9837 198.023 27.1502C197.406 30.7507 196.788 34.3512 196.171 37.9517C196.002 38.9326 195.152 39.6496 194.157 39.6496H186.374C186.214 39.6496 186.063 39.6076 185.92 39.5236C185.813 39.4611 185.726 39.3702 185.663 39.2637C185.543 39.0595 185.423 38.7528 185.302 38.3437C185.054 37.2865 184.836 36.3537 184.65 35.5453C184.464 34.7058 184.277 33.8818 184.091 33.0734C183.936 32.2339 183.765 31.27 183.578 30.1818C183.439 29.1769 183.274 27.9716 183.085 26.5657C183.047 26.2862 182.809 26.0775 182.527 26.0775C182.247 26.0775 182.011 26.2821 181.969 26.5582C181.747 28.0282 181.538 29.2827 181.342 30.3217C181.155 31.441 180.969 32.4671 180.783 33.3999C180.596 34.3327 180.379 35.281 180.13 36.2449C179.984 36.8119 179.822 37.438 179.643 38.1233C179.409 39.0225 178.597 39.6496 177.668 39.6496H169.973C169.813 39.6496 169.661 39.6076 169.518 39.5236C169.412 39.461 169.324 39.3703 169.264 39.262C169.149 39.0523 169.044 38.7307 168.947 38.297C168.264 34.5037 167.581 30.5549 166.897 26.4506C166.372 23.1444 165.826 19.8382 165.26 16.532C165.046 15.2816 166.008 14.1378 167.277 14.1378H173.001C173.188 14.1378 173.327 14.1844 173.421 14.2777C173.514 14.371 173.576 14.5886 173.607 14.9306C173.949 18.1021 174.228 20.9782 174.446 23.5589C174.676 25.9491 174.773 28.3392 174.737 30.7293C174.732 31.0429 174.984 31.3011 175.297 31.3011C175.582 31.3011 175.82 31.0872 175.854 30.8046C176.134 28.4319 176.55 25.9234 177.102 23.2791C177.621 20.9137 178.184 18.3961 178.79 15.7265Z"/>
</mask>
<path d="M67.9119 30.8814C69.0404 30.8814 69.9552 31.7962 69.9552 32.9246V39.1366C69.9552 39.4786 69.7843 39.6496 69.4426 39.6496H64.3637C60.7604 39.6496 58.0113 38.7634 56.1164 36.9911C54.2215 35.2188 53.2741 32.5293 53.2741 28.9225V24.9026C53.2741 23.7742 52.3593 22.8594 51.2308 22.8594H50.1522C49.8105 22.8594 49.6396 22.6883 49.6396 22.3463V15.955C49.6396 14.9513 50.4532 14.1378 51.4569 14.1378C52.4605 14.1378 53.2741 13.3242 53.2741 12.3205V9.04516C53.2741 7.9167 54.1889 7.0019 55.3173 7.0019H62.0806C62.4223 7.0019 62.5931 7.17291 62.5931 7.51494V12.0945C62.5931 13.223 63.5079 14.1378 64.6364 14.1378H69.4426C69.7843 14.1378 69.9552 14.3088 69.9552 14.6508V20.8161C69.9552 21.9446 69.0404 22.8594 67.9119 22.8594H64.6364C63.5079 22.8594 62.5931 23.7742 62.5931 24.9026V28.2229C62.5931 29.1868 62.8261 29.8864 63.2921 30.3217C63.6648 30.6948 64.3793 30.8814 65.4354 30.8814H67.9119Z" fill="black"/>
<path d="M86.5431 39.1366C86.5431 39.4786 86.3722 39.6496 86.0305 39.6496H80.7653C78.7772 39.6496 77.1464 39.0899 75.8728 37.9706C74.5992 36.8512 73.9624 35.1722 73.9624 32.9335V6.71318C73.9624 5.58472 74.8772 4.66992 76.0056 4.66992H83.0484C83.3901 4.66992 83.561 4.84093 83.561 5.18296V30.1351C83.561 30.3839 83.6231 30.5704 83.7474 30.6948C83.9027 30.8503 84.1201 30.928 84.3997 30.928H84.4998C85.6283 30.928 86.5431 31.8428 86.5431 32.9713V39.1366Z" fill="black"/>
<path d="M97.2418 13.6714C98.6707 13.6714 99.8977 14.0289 100.923 14.7441C101.888 15.3977 102.685 16.2462 103.313 17.2894C103.423 17.4722 103.618 17.5891 103.831 17.5891C104.155 17.5891 104.417 17.3267 104.417 17.003V6.71318C104.417 5.58472 105.332 4.66992 106.461 4.66992H113.224C113.566 4.66992 113.736 4.84093 113.736 5.18296V37.6063C113.736 38.7348 112.822 39.6496 111.693 39.6496H104.93C104.588 39.6496 104.417 39.4786 104.417 39.1366V36.3346C104.417 36.0017 104.148 35.7319 103.815 35.7319C103.61 35.7319 103.419 35.8368 103.305 36.0071C102.511 37.1871 101.624 38.1525 100.643 38.9034C99.5871 39.7118 98.2669 40.116 96.6826 40.116C94.5392 40.116 92.8463 39.3853 91.6037 37.9239C90.3612 36.4626 89.7399 34.5037 89.7399 32.0473V22.253C89.7399 19.579 90.3767 17.4803 91.6503 15.9567C92.955 14.4331 94.8188 13.6714 97.2418 13.6714ZM99.5715 31.2545C99.9132 31.6276 100.519 31.8141 101.389 31.8141C102.065 31.8141 102.679 31.7511 103.229 31.6251C103.983 31.4525 104.417 30.7192 104.417 29.9456V23.4859C104.417 22.803 104.087 22.1324 103.447 21.8964C103.277 21.8338 103.103 21.7817 102.926 21.74C102.398 21.5845 101.886 21.5068 101.389 21.5068C99.8045 21.5068 99.0124 22.2997 99.0124 23.8854V29.4822C99.0124 30.3217 99.1988 30.9125 99.5715 31.2545Z" fill="black"/>
<path d="M128.467 37.6063C128.467 38.7348 127.552 39.6496 126.424 39.6496H119.521C119.179 39.6496 119.008 39.4786 119.008 39.1366V16.181C119.008 15.0526 119.923 14.1378 121.052 14.1378H127.955C128.296 14.1378 128.467 14.3088 128.467 14.6508V18.3922C128.467 18.6956 128.713 18.9416 129.017 18.9416C129.269 18.9416 129.487 18.7694 129.555 18.5266C129.985 16.9915 130.585 15.8239 131.356 15.0239C132.226 14.1222 133.391 13.6714 134.851 13.6714C135.348 13.6714 135.72 13.718 135.969 13.8113C136.217 13.9046 136.388 13.9978 136.482 14.0911C136.637 14.2466 136.714 14.4331 136.714 14.6508V23.1642C136.714 23.614 136.35 23.9787 135.9 23.9787C135.822 23.9787 135.745 23.9674 135.67 23.946C135.177 23.8057 134.671 23.6922 134.152 23.6056C133.624 23.5123 133.065 23.4657 132.474 23.4657C131.667 23.4657 130.937 23.5745 130.284 23.7921C130.011 23.8704 129.745 23.9624 129.488 24.068C128.83 24.3383 128.467 25.0189 128.467 25.7304V37.6063Z" fill="black"/>
<path d="M161.36 23.2325V30.7881C161.36 31.1353 161.468 31.3737 161.686 31.5033C161.802 31.5723 161.931 31.6194 162.062 31.6516C162.123 31.6667 162.184 31.6742 162.245 31.6742C162.966 31.6742 163.55 32.2584 163.55 32.9789V39.1366C163.55 39.4786 163.379 39.6496 163.037 39.6496H159.915C158.393 39.6496 156.995 39.3387 155.722 38.7168C154.616 38.1634 153.769 37.3638 153.179 36.318C153.045 36.0786 152.797 35.9184 152.523 35.9184C152.255 35.9184 152.013 36.0694 151.88 36.3014C151.22 37.4559 150.357 38.3699 149.292 39.0433C148.142 39.7584 146.667 40.116 144.865 40.116C142.691 40.116 140.967 39.5252 139.693 38.3437C138.419 37.1622 137.783 35.5609 137.783 33.5398V31.7209C137.783 29.5444 138.419 27.8342 139.693 26.5905C140.998 25.3468 142.83 24.7249 145.191 24.7249H151.714C152.075 24.7249 152.367 24.4326 152.367 24.072C152.367 22.9837 152.072 22.253 151.482 21.8799C150.922 21.4757 149.835 21.2736 148.22 21.2736C145.526 21.2736 142.861 21.6663 140.227 22.4517C140.151 22.4744 140.072 22.4862 139.992 22.4862C139.544 22.4862 139.18 22.1228 139.18 21.6745V15.6769C139.18 15.4592 139.227 15.3037 139.32 15.2105C139.538 14.9928 140.128 14.7596 141.091 14.5109C142.085 14.2621 143.281 14.0445 144.679 13.8579C146.108 13.6403 147.568 13.5314 149.059 13.5314C153.314 13.5314 156.421 14.3088 158.378 15.8634C160.366 17.387 161.36 19.8433 161.36 23.2325ZM146.496 31.9074C146.496 32.9024 146.993 33.3999 147.987 33.3999C149.222 33.3999 150.381 33.1449 151.465 32.6349C152.044 32.3622 152.367 31.7519 152.367 31.1114C152.367 30.0828 151.533 29.249 150.504 29.249H148.08C147.552 29.249 147.148 29.3889 146.869 29.6687C146.62 29.9797 146.496 30.3528 146.496 30.7881V31.9074Z" fill="black"/>
<path d="M178.79 15.7265C179.001 14.7969 179.828 14.1378 180.781 14.1378H185.349C185.629 14.1378 185.815 14.3088 185.908 14.6508C186.623 17.6979 187.275 20.5896 187.865 23.3258C188.446 25.8854 188.878 28.377 189.16 30.8006C189.193 31.0852 189.434 31.3011 189.72 31.3011C190.033 31.3011 190.285 31.0458 190.283 30.7332C190.271 28.2977 190.366 25.7819 190.568 23.1858C190.768 20.9063 190.988 18.5057 191.229 15.984C191.329 14.9367 192.209 14.1378 193.261 14.1378H199.7C200.011 14.1378 200.151 14.3399 200.12 14.7441C199.436 18.8484 198.737 22.9837 198.023 27.1502C197.406 30.7507 196.788 34.3512 196.171 37.9517C196.002 38.9326 195.152 39.6496 194.157 39.6496H186.374C186.214 39.6496 186.063 39.6076 185.92 39.5236C185.813 39.4611 185.726 39.3702 185.663 39.2637C185.543 39.0595 185.423 38.7528 185.302 38.3437C185.054 37.2865 184.836 36.3537 184.65 35.5453C184.464 34.7058 184.277 33.8818 184.091 33.0734C183.936 32.2339 183.765 31.27 183.578 30.1818C183.439 29.1769 183.274 27.9716 183.085 26.5657C183.047 26.2862 182.809 26.0775 182.527 26.0775C182.247 26.0775 182.011 26.2821 181.969 26.5582C181.747 28.0282 181.538 29.2827 181.342 30.3217C181.155 31.441 180.969 32.4671 180.783 33.3999C180.596 34.3327 180.379 35.281 180.13 36.2449C179.984 36.8119 179.822 37.438 179.643 38.1233C179.409 39.0225 178.597 39.6496 177.668 39.6496H169.973C169.813 39.6496 169.661 39.6076 169.518 39.5236C169.412 39.461 169.324 39.3703 169.264 39.262C169.149 39.0523 169.044 38.7307 168.947 38.297C168.264 34.5037 167.581 30.5549 166.897 26.4506C166.372 23.1444 165.826 19.8382 165.26 16.532C165.046 15.2816 166.008 14.1378 167.277 14.1378H173.001C173.188 14.1378 173.327 14.1844 173.421 14.2777C173.514 14.371 173.576 14.5886 173.607 14.9306C173.949 18.1021 174.228 20.9782 174.446 23.5589C174.676 25.9491 174.773 28.3392 174.737 30.7293C174.732 31.0429 174.984 31.3011 175.297 31.3011C175.582 31.3011 175.82 31.0872 175.854 30.8046C176.134 28.4319 176.55 25.9234 177.102 23.2791C177.621 20.9137 178.184 18.3961 178.79 15.7265Z" fill="black"/>
<path d="M67.9119 30.8814C69.0404 30.8814 69.9552 31.7962 69.9552 32.9246V39.1366C69.9552 39.4786 69.7843 39.6496 69.4426 39.6496H64.3637C60.7604 39.6496 58.0113 38.7634 56.1164 36.9911C54.2215 35.2188 53.2741 32.5293 53.2741 28.9225V24.9026C53.2741 23.7742 52.3593 22.8594 51.2308 22.8594H50.1522C49.8105 22.8594 49.6396 22.6883 49.6396 22.3463V15.955C49.6396 14.9513 50.4532 14.1378 51.4569 14.1378C52.4605 14.1378 53.2741 13.3242 53.2741 12.3205V9.04516C53.2741 7.9167 54.1889 7.0019 55.3173 7.0019H62.0806C62.4223 7.0019 62.5931 7.17291 62.5931 7.51494V12.0945C62.5931 13.223 63.5079 14.1378 64.6364 14.1378H69.4426C69.7843 14.1378 69.9552 14.3088 69.9552 14.6508V20.8161C69.9552 21.9446 69.0404 22.8594 67.9119 22.8594H64.6364C63.5079 22.8594 62.5931 23.7742 62.5931 24.9026V28.2229C62.5931 29.1868 62.8261 29.8864 63.2921 30.3217C63.6648 30.6948 64.3793 30.8814 65.4354 30.8814H67.9119Z" stroke="white" stroke-width="8" mask="url(#path-1-outside-1_1207_106292)"/>
<path d="M86.5431 39.1366C86.5431 39.4786 86.3722 39.6496 86.0305 39.6496H80.7653C78.7772 39.6496 77.1464 39.0899 75.8728 37.9706C74.5992 36.8512 73.9624 35.1722 73.9624 32.9335V6.71318C73.9624 5.58472 74.8772 4.66992 76.0056 4.66992H83.0484C83.3901 4.66992 83.561 4.84093 83.561 5.18296V30.1351C83.561 30.3839 83.6231 30.5704 83.7474 30.6948C83.9027 30.8503 84.1201 30.928 84.3997 30.928H84.4998C85.6283 30.928 86.5431 31.8428 86.5431 32.9713V39.1366Z" stroke="white" stroke-width="8" mask="url(#path-1-outside-1_1207_106292)"/>
<path d="M97.2418 13.6714C98.6707 13.6714 99.8977 14.0289 100.923 14.7441C101.888 15.3977 102.685 16.2462 103.313 17.2894C103.423 17.4722 103.618 17.5891 103.831 17.5891C104.155 17.5891 104.417 17.3267 104.417 17.003V6.71318C104.417 5.58472 105.332 4.66992 106.461 4.66992H113.224C113.566 4.66992 113.736 4.84093 113.736 5.18296V37.6063C113.736 38.7348 112.822 39.6496 111.693 39.6496H104.93C104.588 39.6496 104.417 39.4786 104.417 39.1366V36.3346C104.417 36.0017 104.148 35.7319 103.815 35.7319C103.61 35.7319 103.419 35.8368 103.305 36.0071C102.511 37.1871 101.624 38.1525 100.643 38.9034C99.5871 39.7118 98.2669 40.116 96.6826 40.116C94.5392 40.116 92.8463 39.3853 91.6037 37.9239C90.3612 36.4626 89.7399 34.5037 89.7399 32.0473V22.253C89.7399 19.579 90.3767 17.4803 91.6503 15.9567C92.955 14.4331 94.8188 13.6714 97.2418 13.6714ZM99.5715 31.2545C99.9132 31.6276 100.519 31.8141 101.389 31.8141C102.065 31.8141 102.679 31.7511 103.229 31.6251C103.983 31.4525 104.417 30.7192 104.417 29.9456V23.4859C104.417 22.803 104.087 22.1324 103.447 21.8964C103.277 21.8338 103.103 21.7817 102.926 21.74C102.398 21.5845 101.886 21.5068 101.389 21.5068C99.8045 21.5068 99.0124 22.2997 99.0124 23.8854V29.4822C99.0124 30.3217 99.1988 30.9125 99.5715 31.2545Z" stroke="white" stroke-width="8" mask="url(#path-1-outside-1_1207_106292)"/>
<path d="M128.467 37.6063C128.467 38.7348 127.552 39.6496 126.424 39.6496H119.521C119.179 39.6496 119.008 39.4786 119.008 39.1366V16.181C119.008 15.0526 119.923 14.1378 121.052 14.1378H127.955C128.296 14.1378 128.467 14.3088 128.467 14.6508V18.3922C128.467 18.6956 128.713 18.9416 129.017 18.9416C129.269 18.9416 129.487 18.7694 129.555 18.5266C129.985 16.9915 130.585 15.8239 131.356 15.0239C132.226 14.1222 133.391 13.6714 134.851 13.6714C135.348 13.6714 135.72 13.718 135.969 13.8113C136.217 13.9046 136.388 13.9978 136.482 14.0911C136.637 14.2466 136.714 14.4331 136.714 14.6508V23.1642C136.714 23.614 136.35 23.9787 135.9 23.9787C135.822 23.9787 135.745 23.9674 135.67 23.946C135.177 23.8057 134.671 23.6922 134.152 23.6056C133.624 23.5123 133.065 23.4657 132.474 23.4657C131.667 23.4657 130.937 23.5745 130.284 23.7921C130.011 23.8704 129.745 23.9624 129.488 24.068C128.83 24.3383 128.467 25.0189 128.467 25.7304V37.6063Z" stroke="white" stroke-width="8" mask="url(#path-1-outside-1_1207_106292)"/>
<path d="M161.36 23.2325V30.7881C161.36 31.1353 161.468 31.3737 161.686 31.5033C161.802 31.5723 161.931 31.6194 162.062 31.6516C162.123 31.6667 162.184 31.6742 162.245 31.6742C162.966 31.6742 163.55 32.2584 163.55 32.9789V39.1366C163.55 39.4786 163.379 39.6496 163.037 39.6496H159.915C158.393 39.6496 156.995 39.3387 155.722 38.7168C154.616 38.1634 153.769 37.3638 153.179 36.318C153.045 36.0786 152.797 35.9184 152.523 35.9184C152.255 35.9184 152.013 36.0694 151.88 36.3014C151.22 37.4559 150.357 38.3699 149.292 39.0433C148.142 39.7584 146.667 40.116 144.865 40.116C142.691 40.116 140.967 39.5252 139.693 38.3437C138.419 37.1622 137.783 35.5609 137.783 33.5398V31.7209C137.783 29.5444 138.419 27.8342 139.693 26.5905C140.998 25.3468 142.83 24.7249 145.191 24.7249H151.714C152.075 24.7249 152.367 24.4326 152.367 24.072C152.367 22.9837 152.072 22.253 151.482 21.8799C150.922 21.4757 149.835 21.2736 148.22 21.2736C145.526 21.2736 142.861 21.6663 140.227 22.4517C140.151 22.4744 140.072 22.4862 139.992 22.4862C139.544 22.4862 139.18 22.1228 139.18 21.6745V15.6769C139.18 15.4592 139.227 15.3037 139.32 15.2105C139.538 14.9928 140.128 14.7596 141.091 14.5109C142.085 14.2621 143.281 14.0445 144.679 13.8579C146.108 13.6403 147.568 13.5314 149.059 13.5314C153.314 13.5314 156.421 14.3088 158.378 15.8634C160.366 17.387 161.36 19.8433 161.36 23.2325ZM146.496 31.9074C146.496 32.9024 146.993 33.3999 147.987 33.3999C149.222 33.3999 150.381 33.1449 151.465 32.6349C152.044 32.3622 152.367 31.7519 152.367 31.1114C152.367 30.0828 151.533 29.249 150.504 29.249H148.08C147.552 29.249 147.148 29.3889 146.869 29.6687C146.62 29.9797 146.496 30.3528 146.496 30.7881V31.9074Z" stroke="white" stroke-width="8" mask="url(#path-1-outside-1_1207_106292)"/>
<path d="M178.79 15.7265C179.001 14.7969 179.828 14.1378 180.781 14.1378H185.349C185.629 14.1378 185.815 14.3088 185.908 14.6508C186.623 17.6979 187.275 20.5896 187.865 23.3258C188.446 25.8854 188.878 28.377 189.16 30.8006C189.193 31.0852 189.434 31.3011 189.72 31.3011C190.033 31.3011 190.285 31.0458 190.283 30.7332C190.271 28.2977 190.366 25.7819 190.568 23.1858C190.768 20.9063 190.988 18.5057 191.229 15.984C191.329 14.9367 192.209 14.1378 193.261 14.1378H199.7C200.011 14.1378 200.151 14.3399 200.12 14.7441C199.436 18.8484 198.737 22.9837 198.023 27.1502C197.406 30.7507 196.788 34.3512 196.171 37.9517C196.002 38.9326 195.152 39.6496 194.157 39.6496H186.374C186.214 39.6496 186.063 39.6076 185.92 39.5236C185.813 39.4611 185.726 39.3702 185.663 39.2637C185.543 39.0595 185.423 38.7528 185.302 38.3437C185.054 37.2865 184.836 36.3537 184.65 35.5453C184.464 34.7058 184.277 33.8818 184.091 33.0734C183.936 32.2339 183.765 31.27 183.578 30.1818C183.439 29.1769 183.274 27.9716 183.085 26.5657C183.047 26.2862 182.809 26.0775 182.527 26.0775C182.247 26.0775 182.011 26.2821 181.969 26.5582C181.747 28.0282 181.538 29.2827 181.342 30.3217C181.155 31.441 180.969 32.4671 180.783 33.3999C180.596 34.3327 180.379 35.281 180.13 36.2449C179.984 36.8119 179.822 37.438 179.643 38.1233C179.409 39.0225 178.597 39.6496 177.668 39.6496H169.973C169.813 39.6496 169.661 39.6076 169.518 39.5236C169.412 39.461 169.324 39.3703 169.264 39.262C169.149 39.0523 169.044 38.7307 168.947 38.297C168.264 34.5037 167.581 30.5549 166.897 26.4506C166.372 23.1444 165.826 19.8382 165.26 16.532C165.046 15.2816 166.008 14.1378 167.277 14.1378H173.001C173.188 14.1378 173.327 14.1844 173.421 14.2777C173.514 14.371 173.576 14.5886 173.607 14.9306C173.949 18.1021 174.228 20.9782 174.446 23.5589C174.676 25.9491 174.773 28.3392 174.737 30.7293C174.732 31.0429 174.984 31.3011 175.297 31.3011C175.582 31.3011 175.82 31.0872 175.854 30.8046C176.134 28.4319 176.55 25.9234 177.102 23.2791C177.621 20.9137 178.184 18.3961 178.79 15.7265Z" stroke="white" stroke-width="8" mask="url(#path-1-outside-1_1207_106292)"/>
<mask id="path-2-outside-2_1207_106292" maskUnits="userSpaceOnUse" x="0.809082" y="6.94922" width="33" height="41" fill="black">
<rect fill="white" x="0.809082" y="6.94922" width="33" height="41"/>
<path d="M7.15685 34.8465C6.63459 34.7943 6.21679 34.6637 5.90344 34.4548C5.6162 34.2198 5.39424 33.9325 5.23756 33.5931C5.02866 33.3581 4.8981 33.1753 4.84587 33.0447C4.81976 32.9141 4.81976 32.7966 4.84587 32.6922C4.97644 32.6922 5.09394 32.6922 5.19839 32.6922C5.30284 32.6661 5.36813 32.6138 5.39424 32.5355C5.39424 32.4572 5.43341 32.4049 5.51175 32.3788C5.6162 32.3527 5.72065 32.3527 5.8251 32.3788C6.32124 32.4049 6.92183 32.2352 7.62687 31.8696C8.35803 31.5041 9.15447 30.9949 10.0162 30.342C10.8779 29.6631 11.7396 28.932 12.6013 28.1486C13.2803 27.2607 13.7503 26.6079 14.0114 26.1901C14.2987 25.7723 14.4423 25.459 14.4423 25.2501C14.4684 25.0151 14.4162 24.78 14.2856 24.545C14.1812 24.3361 13.9331 24.2317 13.5414 24.2317C13.1497 24.2317 12.5491 24.4928 11.7396 25.0151C10.6168 25.7201 9.71589 26.3729 9.03696 26.9735C8.35803 27.5741 7.73133 28.253 7.15685 29.0103C6.94794 29.2714 6.71293 29.5587 6.4518 29.872C6.21679 30.1593 6.00789 30.4073 5.8251 30.6162C5.66842 30.8251 5.59008 30.9296 5.59008 30.9296C5.59008 31.034 5.43341 31.1646 5.12005 31.3213C4.83282 31.4779 4.58475 31.5563 4.37584 31.5563C4.27139 31.5041 4.12777 31.4127 3.94498 31.2821C3.78831 31.1254 3.68386 30.9296 3.63163 30.6946C3.39662 30.5118 3.20077 30.3551 3.0441 30.2245C2.88742 30.0679 2.80908 29.8198 2.80908 29.4803C2.80908 29.2714 2.83519 29.0103 2.88742 28.6969C2.96576 28.3836 3.07021 27.9788 3.20077 27.4827C3.35745 26.8038 3.52718 26.0987 3.70997 25.3676C3.89276 24.6103 4.06249 23.9705 4.21917 23.4483C4.40196 22.8999 4.53252 22.5996 4.61086 22.5474C4.61086 22.5474 4.66308 22.4299 4.76753 22.1949C4.87198 21.9599 4.92421 21.6857 4.92421 21.3723C4.97644 21.059 5.05477 20.7848 5.15922 20.5498C5.4121 20.0946 5.63822 19.5911 5.8251 19.1005C6.034 18.5522 6.29513 17.8341 6.60848 16.9462C6.60848 16.8679 6.69987 16.6198 6.88266 16.202C7.06545 15.7581 7.28741 15.2489 7.54854 14.6744C7.80966 14.0738 8.07079 13.4602 8.33192 12.8335C8.61916 12.1807 8.85417 11.6062 9.03696 11.11C9.35031 10.6661 9.61144 10.2222 9.82034 9.7783C10.0554 9.30827 10.2643 9.03409 10.447 8.95575C10.5776 8.92963 10.7996 8.98186 11.1129 9.11242C11.4524 9.24299 11.7918 9.41272 12.1313 9.62162C12.4708 9.83052 12.7058 10.0394 12.8364 10.2483C12.9147 10.3789 12.9539 10.5095 12.9539 10.64C12.98 10.7706 12.9278 10.9925 12.7972 11.3059C12.6666 11.5931 12.4447 12.0762 12.1313 12.7551C11.818 13.408 11.374 14.335 10.7996 15.5361C10.0684 17.1029 9.49393 18.4085 9.07613 19.4531C8.68444 20.4976 8.35803 21.3984 8.0969 22.1557C7.86189 22.913 7.61382 23.6311 7.35269 24.31C7.3003 24.5405 7.58894 24.6898 7.74675 24.5138L8.17524 24.0358C8.43637 23.7747 8.71055 23.5266 8.99779 23.2916C9.28503 23.0566 9.59838 22.8216 9.93785 22.5866C10.1467 22.4299 10.4209 22.2732 10.7604 22.1165C11.126 21.9338 11.4785 21.7771 11.818 21.6465C12.1574 21.516 12.4055 21.4376 12.5622 21.4115C12.6405 21.3854 12.9016 21.3332 13.3456 21.2548C13.8156 21.1504 14.2726 21.0982 14.7165 21.0982C15.2909 21.0982 15.7871 21.3071 16.2049 21.7249C16.6488 22.1165 17.0405 22.5996 17.38 23.1741C17.6672 23.7225 17.7717 24.4275 17.6933 25.2892C17.615 26.1248 17.393 26.8429 17.0274 27.4435C16.8969 27.548 16.7663 27.6916 16.6358 27.8744C16.5052 28.0311 16.4399 28.1616 16.4399 28.2661C16.4138 28.4489 16.1788 28.8275 15.7349 29.402C15.2909 29.9504 14.847 30.4726 14.4031 30.9688C13.9331 31.4649 13.3586 31.961 12.6797 32.4572C12.0007 32.9272 11.3218 33.3581 10.6429 33.7498C9.99007 34.1153 9.42865 34.3765 8.95862 34.5331C8.74972 34.5592 8.44942 34.6115 8.05773 34.6898C7.66604 34.742 7.36575 34.7943 7.15685 34.8465Z"/>
<path d="M18.2548 45.1479C17.6804 45.2524 17.2887 45.2654 17.0798 45.1871C16.8709 45.1088 16.5836 44.9782 16.2181 44.7954C15.9308 44.5865 15.7219 44.4298 15.5913 44.3254C15.4608 44.2209 15.3694 44.1165 15.3172 44.012C15.056 43.4637 15.0169 43.0589 15.1997 42.7978C15.3824 42.5367 15.6436 42.3669 15.983 42.2886C16.3486 42.2364 16.662 42.2103 16.9231 42.2103C17.1059 42.3147 17.4062 42.3669 17.824 42.3669C18.2679 42.3669 18.5421 42.3147 18.6465 42.2103C18.6465 42.2103 18.764 42.1319 18.9991 41.9753C19.2602 41.8447 19.5996 41.7402 20.0174 41.6619C20.8269 41.2702 21.4667 40.8655 21.9367 40.4477C22.4068 40.056 22.929 39.377 23.5035 38.4109C23.7385 38.0453 23.9866 37.6144 24.2477 37.1183C24.5088 36.6483 24.6916 36.1782 24.7961 35.7082C25.005 35.186 25.24 34.4809 25.5011 33.5931C25.7884 32.7052 26.0364 31.8305 26.2453 30.9688C26.4542 30.0809 26.5717 29.415 26.5978 28.9711C26.7545 27.5088 27.0548 26.0987 27.4987 24.7409C27.9427 23.3569 28.2952 21.8946 28.5563 20.3539C28.713 19.9884 28.8305 19.7795 28.9088 19.7272C28.9872 19.6489 29.1569 19.6097 29.418 19.6097C29.7053 19.6097 30.0447 19.7011 30.4364 19.8839C30.8281 20.0406 31.1153 20.2625 31.2981 20.5498C31.5593 21.0459 31.6768 21.6335 31.6507 22.3124C31.6507 22.9652 31.4809 23.5397 31.1415 24.0358C30.8803 24.4014 30.6453 24.9759 30.4364 25.7593C30.2536 26.5165 30.0708 27.4696 29.888 28.6186C29.7575 29.1931 29.6139 29.872 29.4572 30.6554C29.3266 31.4127 29.183 32.2613 29.0263 33.2014C28.9219 33.4625 28.7783 33.8673 28.5955 34.4156C28.4127 34.9379 28.2952 35.3557 28.2429 35.669C28.2168 35.7735 28.1385 35.9824 28.0079 36.2957C27.8774 36.6091 27.7468 36.9094 27.6162 37.1966C27.4857 37.51 27.3943 37.7189 27.3421 37.8233C26.0886 40.3563 24.6394 42.1842 22.9943 43.307C21.3753 44.4298 19.7955 45.0435 18.2548 45.1479ZM21.545 34.0631C21.2578 34.0631 20.9575 33.9064 20.6442 33.5931C20.3569 33.2797 20.1611 33.0317 20.0566 32.8489C19.9522 32.5877 19.7563 32.3397 19.4691 32.1047C19.1818 31.8696 18.9338 31.5824 18.7249 31.2429C18.516 30.9035 18.4637 30.4857 18.5682 29.9895C18.6726 29.6501 18.8293 29.1409 19.0382 28.4619C19.2471 27.7569 19.4952 26.9866 19.7824 26.151C20.0697 25.2892 20.3569 24.4406 20.6442 23.605C20.9575 22.7694 21.2447 22.0252 21.5059 21.3723C21.767 20.7195 21.989 20.2625 22.1717 20.0014C22.3284 19.7925 22.5765 19.6358 22.916 19.5314C23.2554 19.4269 23.5949 19.4008 23.9343 19.4531C24.2738 19.5053 24.5219 19.662 24.6786 19.9231C24.9658 20.2887 25.1225 20.6542 25.1486 21.0198C25.2008 21.3593 25.018 21.9076 24.6002 22.6649C24.4958 22.9522 24.3652 23.2655 24.2085 23.605C24.0519 23.9183 23.9735 24.1272 23.9735 24.2317C23.9474 24.2839 23.8952 24.4667 23.8168 24.78C23.7646 25.0673 23.6993 25.3415 23.621 25.6026C23.5427 25.8637 23.4643 25.9943 23.386 25.9943C23.2815 26.0987 23.164 26.3729 23.0335 26.8168C22.929 27.2607 22.8246 27.7569 22.7201 28.3053C22.6418 28.8275 22.5895 29.2975 22.5634 29.7153C22.5373 30.107 22.5765 30.3029 22.6809 30.3029C23.4904 30.3029 24.2738 30.0548 25.0311 29.5587C25.2774 29.3888 25.5305 29.1831 25.7906 28.9414C26.4623 28.3173 27.66 28.6582 27.7474 29.5709L27.8513 30.6554C27.4857 30.8382 27.1462 31.034 26.8329 31.2429C26.5195 31.4257 26.2323 31.6477 25.9711 31.9088C25.8928 32.0133 25.71 32.1569 25.4228 32.3397C25.1355 32.5225 24.8483 32.6922 24.5611 32.8489C24.2999 32.9794 24.1302 33.0447 24.0519 33.0447C24.0519 33.0447 24.0127 33.0578 23.9343 33.0839C23.8821 33.0839 23.856 33.1361 23.856 33.2406C23.856 33.2928 23.6863 33.3972 23.3468 33.5539C23.0073 33.6845 22.6548 33.802 22.2893 33.9064C21.9237 34.0109 21.6756 34.0631 21.545 34.0631Z"/>
</mask>
<path d="M7.15685 34.8465C6.63459 34.7943 6.21679 34.6637 5.90344 34.4548C5.6162 34.2198 5.39424 33.9325 5.23756 33.5931C5.02866 33.3581 4.8981 33.1753 4.84587 33.0447C4.81976 32.9141 4.81976 32.7966 4.84587 32.6922C4.97644 32.6922 5.09394 32.6922 5.19839 32.6922C5.30284 32.6661 5.36813 32.6138 5.39424 32.5355C5.39424 32.4572 5.43341 32.4049 5.51175 32.3788C5.6162 32.3527 5.72065 32.3527 5.8251 32.3788C6.32124 32.4049 6.92183 32.2352 7.62687 31.8696C8.35803 31.5041 9.15447 30.9949 10.0162 30.342C10.8779 29.6631 11.7396 28.932 12.6013 28.1486C13.2803 27.2607 13.7503 26.6079 14.0114 26.1901C14.2987 25.7723 14.4423 25.459 14.4423 25.2501C14.4684 25.0151 14.4162 24.78 14.2856 24.545C14.1812 24.3361 13.9331 24.2317 13.5414 24.2317C13.1497 24.2317 12.5491 24.4928 11.7396 25.0151C10.6168 25.7201 9.71589 26.3729 9.03696 26.9735C8.35803 27.5741 7.73133 28.253 7.15685 29.0103C6.94794 29.2714 6.71293 29.5587 6.4518 29.872C6.21679 30.1593 6.00789 30.4073 5.8251 30.6162C5.66842 30.8251 5.59008 30.9296 5.59008 30.9296C5.59008 31.034 5.43341 31.1646 5.12005 31.3213C4.83282 31.4779 4.58475 31.5563 4.37584 31.5563C4.27139 31.5041 4.12777 31.4127 3.94498 31.2821C3.78831 31.1254 3.68386 30.9296 3.63163 30.6946C3.39662 30.5118 3.20077 30.3551 3.0441 30.2245C2.88742 30.0679 2.80908 29.8198 2.80908 29.4803C2.80908 29.2714 2.83519 29.0103 2.88742 28.6969C2.96576 28.3836 3.07021 27.9788 3.20077 27.4827C3.35745 26.8038 3.52718 26.0987 3.70997 25.3676C3.89276 24.6103 4.06249 23.9705 4.21917 23.4483C4.40196 22.8999 4.53252 22.5996 4.61086 22.5474C4.61086 22.5474 4.66308 22.4299 4.76753 22.1949C4.87198 21.9599 4.92421 21.6857 4.92421 21.3723C4.97644 21.059 5.05477 20.7848 5.15922 20.5498C5.4121 20.0946 5.63822 19.5911 5.8251 19.1005C6.034 18.5522 6.29513 17.8341 6.60848 16.9462C6.60848 16.8679 6.69987 16.6198 6.88266 16.202C7.06545 15.7581 7.28741 15.2489 7.54854 14.6744C7.80966 14.0738 8.07079 13.4602 8.33192 12.8335C8.61916 12.1807 8.85417 11.6062 9.03696 11.11C9.35031 10.6661 9.61144 10.2222 9.82034 9.7783C10.0554 9.30827 10.2643 9.03409 10.447 8.95575C10.5776 8.92963 10.7996 8.98186 11.1129 9.11242C11.4524 9.24299 11.7918 9.41272 12.1313 9.62162C12.4708 9.83052 12.7058 10.0394 12.8364 10.2483C12.9147 10.3789 12.9539 10.5095 12.9539 10.64C12.98 10.7706 12.9278 10.9925 12.7972 11.3059C12.6666 11.5931 12.4447 12.0762 12.1313 12.7551C11.818 13.408 11.374 14.335 10.7996 15.5361C10.0684 17.1029 9.49393 18.4085 9.07613 19.4531C8.68444 20.4976 8.35803 21.3984 8.0969 22.1557C7.86189 22.913 7.61382 23.6311 7.35269 24.31C7.3003 24.5405 7.58894 24.6898 7.74675 24.5138L8.17524 24.0358C8.43637 23.7747 8.71055 23.5266 8.99779 23.2916C9.28503 23.0566 9.59838 22.8216 9.93785 22.5866C10.1467 22.4299 10.4209 22.2732 10.7604 22.1165C11.126 21.9338 11.4785 21.7771 11.818 21.6465C12.1574 21.516 12.4055 21.4376 12.5622 21.4115C12.6405 21.3854 12.9016 21.3332 13.3456 21.2548C13.8156 21.1504 14.2726 21.0982 14.7165 21.0982C15.2909 21.0982 15.7871 21.3071 16.2049 21.7249C16.6488 22.1165 17.0405 22.5996 17.38 23.1741C17.6672 23.7225 17.7717 24.4275 17.6933 25.2892C17.615 26.1248 17.393 26.8429 17.0274 27.4435C16.8969 27.548 16.7663 27.6916 16.6358 27.8744C16.5052 28.0311 16.4399 28.1616 16.4399 28.2661C16.4138 28.4489 16.1788 28.8275 15.7349 29.402C15.2909 29.9504 14.847 30.4726 14.4031 30.9688C13.9331 31.4649 13.3586 31.961 12.6797 32.4572C12.0007 32.9272 11.3218 33.3581 10.6429 33.7498C9.99007 34.1153 9.42865 34.3765 8.95862 34.5331C8.74972 34.5592 8.44942 34.6115 8.05773 34.6898C7.66604 34.742 7.36575 34.7943 7.15685 34.8465Z" fill="black"/>
<path d="M18.2548 45.1479C17.6804 45.2524 17.2887 45.2654 17.0798 45.1871C16.8709 45.1088 16.5836 44.9782 16.2181 44.7954C15.9308 44.5865 15.7219 44.4298 15.5913 44.3254C15.4608 44.2209 15.3694 44.1165 15.3172 44.012C15.056 43.4637 15.0169 43.0589 15.1997 42.7978C15.3824 42.5367 15.6436 42.3669 15.983 42.2886C16.3486 42.2364 16.662 42.2103 16.9231 42.2103C17.1059 42.3147 17.4062 42.3669 17.824 42.3669C18.2679 42.3669 18.5421 42.3147 18.6465 42.2103C18.6465 42.2103 18.764 42.1319 18.9991 41.9753C19.2602 41.8447 19.5996 41.7402 20.0174 41.6619C20.8269 41.2702 21.4667 40.8655 21.9367 40.4477C22.4068 40.056 22.929 39.377 23.5035 38.4109C23.7385 38.0453 23.9866 37.6144 24.2477 37.1183C24.5088 36.6483 24.6916 36.1782 24.7961 35.7082C25.005 35.186 25.24 34.4809 25.5011 33.5931C25.7884 32.7052 26.0364 31.8305 26.2453 30.9688C26.4542 30.0809 26.5717 29.415 26.5978 28.9711C26.7545 27.5088 27.0548 26.0987 27.4987 24.7409C27.9427 23.3569 28.2952 21.8946 28.5563 20.3539C28.713 19.9884 28.8305 19.7795 28.9088 19.7272C28.9872 19.6489 29.1569 19.6097 29.418 19.6097C29.7053 19.6097 30.0447 19.7011 30.4364 19.8839C30.8281 20.0406 31.1153 20.2625 31.2981 20.5498C31.5593 21.0459 31.6768 21.6335 31.6507 22.3124C31.6507 22.9652 31.4809 23.5397 31.1415 24.0358C30.8803 24.4014 30.6453 24.9759 30.4364 25.7593C30.2536 26.5165 30.0708 27.4696 29.888 28.6186C29.7575 29.1931 29.6139 29.872 29.4572 30.6554C29.3266 31.4127 29.183 32.2613 29.0263 33.2014C28.9219 33.4625 28.7783 33.8673 28.5955 34.4156C28.4127 34.9379 28.2952 35.3557 28.2429 35.669C28.2168 35.7735 28.1385 35.9824 28.0079 36.2957C27.8774 36.6091 27.7468 36.9094 27.6162 37.1966C27.4857 37.51 27.3943 37.7189 27.3421 37.8233C26.0886 40.3563 24.6394 42.1842 22.9943 43.307C21.3753 44.4298 19.7955 45.0435 18.2548 45.1479ZM21.545 34.0631C21.2578 34.0631 20.9575 33.9064 20.6442 33.5931C20.3569 33.2797 20.1611 33.0317 20.0566 32.8489C19.9522 32.5877 19.7563 32.3397 19.4691 32.1047C19.1818 31.8696 18.9338 31.5824 18.7249 31.2429C18.516 30.9035 18.4637 30.4857 18.5682 29.9895C18.6726 29.6501 18.8293 29.1409 19.0382 28.4619C19.2471 27.7569 19.4952 26.9866 19.7824 26.151C20.0697 25.2892 20.3569 24.4406 20.6442 23.605C20.9575 22.7694 21.2447 22.0252 21.5059 21.3723C21.767 20.7195 21.989 20.2625 22.1717 20.0014C22.3284 19.7925 22.5765 19.6358 22.916 19.5314C23.2554 19.4269 23.5949 19.4008 23.9343 19.4531C24.2738 19.5053 24.5219 19.662 24.6786 19.9231C24.9658 20.2887 25.1225 20.6542 25.1486 21.0198C25.2008 21.3593 25.018 21.9076 24.6002 22.6649C24.4958 22.9522 24.3652 23.2655 24.2085 23.605C24.0519 23.9183 23.9735 24.1272 23.9735 24.2317C23.9474 24.2839 23.8952 24.4667 23.8168 24.78C23.7646 25.0673 23.6993 25.3415 23.621 25.6026C23.5427 25.8637 23.4643 25.9943 23.386 25.9943C23.2815 26.0987 23.164 26.3729 23.0335 26.8168C22.929 27.2607 22.8246 27.7569 22.7201 28.3053C22.6418 28.8275 22.5895 29.2975 22.5634 29.7153C22.5373 30.107 22.5765 30.3029 22.6809 30.3029C23.4904 30.3029 24.2738 30.0548 25.0311 29.5587C25.2774 29.3888 25.5305 29.1831 25.7906 28.9414C26.4623 28.3173 27.66 28.6582 27.7474 29.5709L27.8513 30.6554C27.4857 30.8382 27.1462 31.034 26.8329 31.2429C26.5195 31.4257 26.2323 31.6477 25.9711 31.9088C25.8928 32.0133 25.71 32.1569 25.4228 32.3397C25.1355 32.5225 24.8483 32.6922 24.5611 32.8489C24.2999 32.9794 24.1302 33.0447 24.0519 33.0447C24.0519 33.0447 24.0127 33.0578 23.9343 33.0839C23.8821 33.0839 23.856 33.1361 23.856 33.2406C23.856 33.2928 23.6863 33.3972 23.3468 33.5539C23.0073 33.6845 22.6548 33.802 22.2893 33.9064C21.9237 34.0109 21.6756 34.0631 21.545 34.0631Z" fill="black"/>
<path d="M7.15685 34.8465C6.63459 34.7943 6.21679 34.6637 5.90344 34.4548C5.6162 34.2198 5.39424 33.9325 5.23756 33.5931C5.02866 33.3581 4.8981 33.1753 4.84587 33.0447C4.81976 32.9141 4.81976 32.7966 4.84587 32.6922C4.97644 32.6922 5.09394 32.6922 5.19839 32.6922C5.30284 32.6661 5.36813 32.6138 5.39424 32.5355C5.39424 32.4572 5.43341 32.4049 5.51175 32.3788C5.6162 32.3527 5.72065 32.3527 5.8251 32.3788C6.32124 32.4049 6.92183 32.2352 7.62687 31.8696C8.35803 31.5041 9.15447 30.9949 10.0162 30.342C10.8779 29.6631 11.7396 28.932 12.6013 28.1486C13.2803 27.2607 13.7503 26.6079 14.0114 26.1901C14.2987 25.7723 14.4423 25.459 14.4423 25.2501C14.4684 25.0151 14.4162 24.78 14.2856 24.545C14.1812 24.3361 13.9331 24.2317 13.5414 24.2317C13.1497 24.2317 12.5491 24.4928 11.7396 25.0151C10.6168 25.7201 9.71589 26.3729 9.03696 26.9735C8.35803 27.5741 7.73133 28.253 7.15685 29.0103C6.94794 29.2714 6.71293 29.5587 6.4518 29.872C6.21679 30.1593 6.00789 30.4073 5.8251 30.6162C5.66842 30.8251 5.59008 30.9296 5.59008 30.9296C5.59008 31.034 5.43341 31.1646 5.12005 31.3213C4.83282 31.4779 4.58475 31.5563 4.37584 31.5563C4.27139 31.5041 4.12777 31.4127 3.94498 31.2821C3.78831 31.1254 3.68386 30.9296 3.63163 30.6946C3.39662 30.5118 3.20077 30.3551 3.0441 30.2245C2.88742 30.0679 2.80908 29.8198 2.80908 29.4803C2.80908 29.2714 2.83519 29.0103 2.88742 28.6969C2.96576 28.3836 3.07021 27.9788 3.20077 27.4827C3.35745 26.8038 3.52718 26.0987 3.70997 25.3676C3.89276 24.6103 4.06249 23.9705 4.21917 23.4483C4.40196 22.8999 4.53252 22.5996 4.61086 22.5474C4.61086 22.5474 4.66308 22.4299 4.76753 22.1949C4.87198 21.9599 4.92421 21.6857 4.92421 21.3723C4.97644 21.059 5.05477 20.7848 5.15922 20.5498C5.4121 20.0946 5.63822 19.5911 5.8251 19.1005C6.034 18.5522 6.29513 17.8341 6.60848 16.9462C6.60848 16.8679 6.69987 16.6198 6.88266 16.202C7.06545 15.7581 7.28741 15.2489 7.54854 14.6744C7.80966 14.0738 8.07079 13.4602 8.33192 12.8335C8.61916 12.1807 8.85417 11.6062 9.03696 11.11C9.35031 10.6661 9.61144 10.2222 9.82034 9.7783C10.0554 9.30827 10.2643 9.03409 10.447 8.95575C10.5776 8.92963 10.7996 8.98186 11.1129 9.11242C11.4524 9.24299 11.7918 9.41272 12.1313 9.62162C12.4708 9.83052 12.7058 10.0394 12.8364 10.2483C12.9147 10.3789 12.9539 10.5095 12.9539 10.64C12.98 10.7706 12.9278 10.9925 12.7972 11.3059C12.6666 11.5931 12.4447 12.0762 12.1313 12.7551C11.818 13.408 11.374 14.335 10.7996 15.5361C10.0684 17.1029 9.49393 18.4085 9.07613 19.4531C8.68444 20.4976 8.35803 21.3984 8.0969 22.1557C7.86189 22.913 7.61382 23.6311 7.35269 24.31C7.3003 24.5405 7.58894 24.6898 7.74675 24.5138L8.17524 24.0358C8.43637 23.7747 8.71055 23.5266 8.99779 23.2916C9.28503 23.0566 9.59838 22.8216 9.93785 22.5866C10.1467 22.4299 10.4209 22.2732 10.7604 22.1165C11.126 21.9338 11.4785 21.7771 11.818 21.6465C12.1574 21.516 12.4055 21.4376 12.5622 21.4115C12.6405 21.3854 12.9016 21.3332 13.3456 21.2548C13.8156 21.1504 14.2726 21.0982 14.7165 21.0982C15.2909 21.0982 15.7871 21.3071 16.2049 21.7249C16.6488 22.1165 17.0405 22.5996 17.38 23.1741C17.6672 23.7225 17.7717 24.4275 17.6933 25.2892C17.615 26.1248 17.393 26.8429 17.0274 27.4435C16.8969 27.548 16.7663 27.6916 16.6358 27.8744C16.5052 28.0311 16.4399 28.1616 16.4399 28.2661C16.4138 28.4489 16.1788 28.8275 15.7349 29.402C15.2909 29.9504 14.847 30.4726 14.4031 30.9688C13.9331 31.4649 13.3586 31.961 12.6797 32.4572C12.0007 32.9272 11.3218 33.3581 10.6429 33.7498C9.99007 34.1153 9.42865 34.3765 8.95862 34.5331C8.74972 34.5592 8.44942 34.6115 8.05773 34.6898C7.66604 34.742 7.36575 34.7943 7.15685 34.8465Z" stroke="white" stroke-width="4" mask="url(#path-2-outside-2_1207_106292)"/>
<path d="M18.2548 45.1479C17.6804 45.2524 17.2887 45.2654 17.0798 45.1871C16.8709 45.1088 16.5836 44.9782 16.2181 44.7954C15.9308 44.5865 15.7219 44.4298 15.5913 44.3254C15.4608 44.2209 15.3694 44.1165 15.3172 44.012C15.056 43.4637 15.0169 43.0589 15.1997 42.7978C15.3824 42.5367 15.6436 42.3669 15.983 42.2886C16.3486 42.2364 16.662 42.2103 16.9231 42.2103C17.1059 42.3147 17.4062 42.3669 17.824 42.3669C18.2679 42.3669 18.5421 42.3147 18.6465 42.2103C18.6465 42.2103 18.764 42.1319 18.9991 41.9753C19.2602 41.8447 19.5996 41.7402 20.0174 41.6619C20.8269 41.2702 21.4667 40.8655 21.9367 40.4477C22.4068 40.056 22.929 39.377 23.5035 38.4109C23.7385 38.0453 23.9866 37.6144 24.2477 37.1183C24.5088 36.6483 24.6916 36.1782 24.7961 35.7082C25.005 35.186 25.24 34.4809 25.5011 33.5931C25.7884 32.7052 26.0364 31.8305 26.2453 30.9688C26.4542 30.0809 26.5717 29.415 26.5978 28.9711C26.7545 27.5088 27.0548 26.0987 27.4987 24.7409C27.9427 23.3569 28.2952 21.8946 28.5563 20.3539C28.713 19.9884 28.8305 19.7795 28.9088 19.7272C28.9872 19.6489 29.1569 19.6097 29.418 19.6097C29.7053 19.6097 30.0447 19.7011 30.4364 19.8839C30.8281 20.0406 31.1153 20.2625 31.2981 20.5498C31.5593 21.0459 31.6768 21.6335 31.6507 22.3124C31.6507 22.9652 31.4809 23.5397 31.1415 24.0358C30.8803 24.4014 30.6453 24.9759 30.4364 25.7593C30.2536 26.5165 30.0708 27.4696 29.888 28.6186C29.7575 29.1931 29.6139 29.872 29.4572 30.6554C29.3266 31.4127 29.183 32.2613 29.0263 33.2014C28.9219 33.4625 28.7783 33.8673 28.5955 34.4156C28.4127 34.9379 28.2952 35.3557 28.2429 35.669C28.2168 35.7735 28.1385 35.9824 28.0079 36.2957C27.8774 36.6091 27.7468 36.9094 27.6162 37.1966C27.4857 37.51 27.3943 37.7189 27.3421 37.8233C26.0886 40.3563 24.6394 42.1842 22.9943 43.307C21.3753 44.4298 19.7955 45.0435 18.2548 45.1479ZM21.545 34.0631C21.2578 34.0631 20.9575 33.9064 20.6442 33.5931C20.3569 33.2797 20.1611 33.0317 20.0566 32.8489C19.9522 32.5877 19.7563 32.3397 19.4691 32.1047C19.1818 31.8696 18.9338 31.5824 18.7249 31.2429C18.516 30.9035 18.4637 30.4857 18.5682 29.9895C18.6726 29.6501 18.8293 29.1409 19.0382 28.4619C19.2471 27.7569 19.4952 26.9866 19.7824 26.151C20.0697 25.2892 20.3569 24.4406 20.6442 23.605C20.9575 22.7694 21.2447 22.0252 21.5059 21.3723C21.767 20.7195 21.989 20.2625 22.1717 20.0014C22.3284 19.7925 22.5765 19.6358 22.916 19.5314C23.2554 19.4269 23.5949 19.4008 23.9343 19.4531C24.2738 19.5053 24.5219 19.662 24.6786 19.9231C24.9658 20.2887 25.1225 20.6542 25.1486 21.0198C25.2008 21.3593 25.018 21.9076 24.6002 22.6649C24.4958 22.9522 24.3652 23.2655 24.2085 23.605C24.0519 23.9183 23.9735 24.1272 23.9735 24.2317C23.9474 24.2839 23.8952 24.4667 23.8168 24.78C23.7646 25.0673 23.6993 25.3415 23.621 25.6026C23.5427 25.8637 23.4643 25.9943 23.386 25.9943C23.2815 26.0987 23.164 26.3729 23.0335 26.8168C22.929 27.2607 22.8246 27.7569 22.7201 28.3053C22.6418 28.8275 22.5895 29.2975 22.5634 29.7153C22.5373 30.107 22.5765 30.3029 22.6809 30.3029C23.4904 30.3029 24.2738 30.0548 25.0311 29.5587C25.2774 29.3888 25.5305 29.1831 25.7906 28.9414C26.4623 28.3173 27.66 28.6582 27.7474 29.5709L27.8513 30.6554C27.4857 30.8382 27.1462 31.034 26.8329 31.2429C26.5195 31.4257 26.2323 31.6477 25.9711 31.9088C25.8928 32.0133 25.71 32.1569 25.4228 32.3397C25.1355 32.5225 24.8483 32.6922 24.5611 32.8489C24.2999 32.9794 24.1302 33.0447 24.0519 33.0447C24.0519 33.0447 24.0127 33.0578 23.9343 33.0839C23.8821 33.0839 23.856 33.1361 23.856 33.2406C23.856 33.2928 23.6863 33.3972 23.3468 33.5539C23.0073 33.6845 22.6548 33.802 22.2893 33.9064C21.9237 34.0109 21.6756 34.0631 21.545 34.0631Z" stroke="white" stroke-width="4" mask="url(#path-2-outside-2_1207_106292)"/>
</svg>
