<svg width="32" height="32" viewBox="0 0 32 32" fill="none" xmlns="http://www.w3.org/2000/svg">
<g clip-path="url(#clip0_102_469)">
<path d="M0 3.51648C0 1.57438 1.50809 0 3.36842 0H28.6316C30.4919 0 32 1.57438 32 3.51648V28.4835C32 30.4256 30.4919 32 28.6316 32H3.36842C1.50809 32 0 30.4256 0 28.4835V3.51648Z" fill="white"/>
<path d="M13.7501 9.39915C13.0983 10.0006 12.3307 10.7583 11.4474 11.6722C10.5641 12.5862 10.5958 12.9662 11.5424 12.8121C12.4889 12.658 13.5212 12.4386 14.6392 12.1539C15.7572 11.8692 16.8524 11.4792 17.9249 10.9838C18.9973 10.4885 19.9951 9.95621 20.9184 9.38708C21.8417 8.81795 22.8315 8.22142 23.8876 7.59749C24.9438 6.97356 26.1648 6.92131 27.5505 7.44075C28.9362 7.9602 29.7272 8.87943 29.9235 10.1984C30.1197 11.5175 29.7668 12.9924 28.8648 14.6231C27.9627 16.2539 27.1068 17.7233 26.2971 19.0313C25.4874 20.3392 24.7613 21.4949 24.1189 22.4982C23.4764 23.5016 22.8923 24.5184 22.3665 25.5488C21.8407 26.5791 21.1268 26.5135 20.2248 25.352C19.3227 24.1905 19.7162 22.7505 21.4052 21.032C23.0942 19.3135 24.4814 18.3815 25.567 18.2362C26.6525 18.0909 27.4962 18.5091 28.0981 19.4907C28.7 20.4724 28.6351 21.4114 27.9034 22.3077C27.1717 23.204 26.2834 23.5045 25.2384 23.2092C24.1934 22.9139 23.5728 22.2048 23.3766 21.082C23.1803 19.9592 23.5981 19.1161 24.63 18.5526C25.6618 17.9892 26.5988 18.053 27.441 18.7441C28.2832 19.4352 28.5833 20.3271 28.3415 21.4197C28.0997 22.5124 27.0085 23.9044 25.068 25.5959C23.1276 27.2873 21.5334 28.2917 20.2856 28.6091C19.0378 28.9265 18.0035 28.8292 17.1826 28.3172C16.3616 27.8052 16.0493 26.815 16.2455 25.3464C16.4418 23.8779 16.746 22.7554 17.1582 21.979C17.5704 21.2026 18.1383 20.2776 18.8619 19.204C19.5854 18.1304 20.2872 16.9911 20.9671 15.7862C21.647 14.5812 22.4786 13.456 23.4617 12.4106C24.4449 11.3651 25.244 11.2292 25.859 12.0029C26.474 12.7766 26.3483 13.4418 25.4818 13.9985C24.6153 14.5552 23.5363 15.166 22.2448 15.8309C20.9534 16.4958 19.5783 17.1073 18.1196 17.6654C16.6608 18.2235 15.0302 18.5981 13.2276 18.7893C11.4251 18.9804 9.83124 18.9835 8.44609 18.7984C7.06094 18.6133 5.78364 17.9762 4.61421 16.887C3.44477 15.7977 3.04481 14.5435 3.41435 13.1241C3.78388 11.7047 4.25319 10.6223 4.82229 9.87692C5.3914 9.13151 6.16765 8.28595 7.15107 7.34025C8.13448 6.39455 8.91102 5.60538 9.48069 4.97275C10.0504 4.34011 10.5309 3.91426 10.9224 3.6952C11.3138 3.47614 11.6821 3.3305 12.0273 3.25829C12.3725 3.18608 12.7645 3.19279 13.2033 3.27842C13.6421 3.36404 14.0072 3.52208 14.2985 3.75253C14.5898 3.98298 14.8657 4.26831 15.126 4.60854C15.3863 4.94876 15.5324 5.31793 15.5641 5.71605C15.5958 6.11417 15.5877 6.51095 15.5397 6.90639C15.4918 7.30183 15.3336 7.66583 15.0652 7.99841C14.7967 8.33099 14.6831 8.49724 14.7244 8.49716C14.7657 8.49708 14.4372 8.79775 13.7387 9.39915H13.7501Z" fill="#FFC078" stroke="#FFC078" stroke-linecap="round" stroke-linejoin="round"/>
</g>
<defs>
<clipPath id="clip0_102_469">
<rect width="32" height="32" fill="white"/>
</clipPath>
</defs>
</svg>
