<svg width="17" height="16" viewBox="0 0 17 16" fill="none" xmlns="http://www.w3.org/2000/svg">
<g clip-path="url(#clip0_102_472)">
<path d="M0.501953 1.75824C0.501953 0.787192 1.256 0 2.18616 0H14.8177C15.7479 0 16.502 0.787192 16.502 1.75824V14.2418C16.502 15.2128 15.7479 16 14.8177 16H2.18616C1.256 16 0.501953 15.2128 0.501953 14.2418V1.75824Z" fill="white"/>
<path d="M7.15986 4.92292C6.85604 5.20327 6.49824 5.55647 6.08649 5.98253C5.67473 6.40859 5.68948 6.5857 6.13074 6.51387C6.57199 6.44204 7.0532 6.33977 7.57436 6.20706C8.09552 6.07436 8.60605 5.89254 9.10596 5.66162C9.60587 5.4307 10.071 5.18259 10.5014 4.91729C10.9318 4.65199 11.3932 4.37391 11.8855 4.08306C12.3779 3.79222 12.947 3.76786 13.593 4.01C14.239 4.25214 14.6077 4.68065 14.6992 5.29551C14.7906 5.91038 14.6261 6.59791 14.2056 7.3581C13.7851 8.1183 13.3862 8.80325 13.0087 9.41296C12.6313 10.0227 12.2928 10.5614 11.9933 11.0291C11.6938 11.4968 11.4216 11.9708 11.1765 12.4511C10.9314 12.9314 10.5986 12.9009 10.1781 12.3594C9.75759 11.818 9.94101 11.1467 10.7283 10.3456C11.5157 9.54451 12.1623 9.1101 12.6684 9.04236C13.1744 8.97462 13.5677 9.16955 13.8483 9.62715C14.1288 10.0847 14.0986 10.5225 13.7575 10.9403C13.4164 11.3581 13.0023 11.4982 12.5152 11.3605C12.0281 11.2229 11.7388 10.8923 11.6473 10.3689C11.5558 9.84552 11.7506 9.4525 12.2316 9.18985C12.7126 8.9272 13.1494 8.95696 13.5419 9.27912C13.9345 9.60128 14.0745 10.017 13.9617 10.5264C13.849 11.0357 13.3403 11.6846 12.4358 12.4731C11.5312 13.2615 10.7881 13.7298 10.2064 13.8777C9.62478 14.0256 9.14261 13.9803 8.75993 13.7416C8.37726 13.503 8.23166 13.0414 8.32314 12.3568C8.41462 11.6722 8.55644 11.149 8.74859 10.7871C8.94074 10.4251 9.20546 9.99394 9.54275 9.49347C9.88005 8.99301 10.2072 8.46193 10.5241 7.90025C10.8411 7.33856 11.2287 6.81404 11.687 6.32669C12.1453 5.83934 12.5178 5.776 12.8045 6.13667C13.0912 6.49734 13.0326 6.80743 12.6287 7.06693C12.2247 7.32643 11.7218 7.61116 11.1197 7.92111C10.5177 8.23107 9.87672 8.51612 9.19672 8.77626C8.51673 9.03641 7.7566 9.21104 6.91633 9.30015C6.07607 9.38927 5.33309 9.39069 4.6874 9.30442C4.0417 9.21815 3.44629 8.92114 2.90115 8.41339C2.35601 7.90565 2.16957 7.32096 2.34183 6.65931C2.51409 5.99767 2.73286 5.49311 2.99815 5.14563C3.26344 4.79815 3.62529 4.40399 4.08372 3.96315C4.54214 3.52231 4.90413 3.15444 5.16968 2.85953C5.43524 2.56463 5.65925 2.36611 5.84172 2.264C6.02418 2.16188 6.19588 2.09399 6.35679 2.06033C6.5177 2.02667 6.70044 2.0298 6.90499 2.06971C7.10954 2.10963 7.27972 2.1833 7.41552 2.29072C7.55133 2.39814 7.67991 2.53116 7.80126 2.68975C7.92262 2.84835 7.99069 3.02044 8.00548 3.20603C8.02026 3.39161 8.01648 3.57657 7.99413 3.76091C7.97178 3.94524 7.89804 4.11492 7.7729 4.26996C7.64776 4.42499 7.59482 4.50249 7.61407 4.50245C7.63332 4.50241 7.48015 4.64257 7.15458 4.92292H7.15986Z" fill="#FFC078" stroke="#FFC078" stroke-linecap="round" stroke-linejoin="round"/>
</g>
<defs>
<clipPath id="clip0_102_472">
<rect width="16" height="16" fill="white" transform="translate(0.501953)"/>
</clipPath>
</defs>
</svg>
